<svg viewBox="0 0 28 23" fill="none" xmlns="http://www.w3.org/2000/svg">
<path d="M8.80005 22.7622C5.67977 22.7654 2.62457 21.8697 0 20.1822C0.454378 20.2393 0.912057 20.266 1.37 20.2622C3.9555 20.2663 6.46709 19.3997 8.5 17.8022C7.30025 17.7806 6.13758 17.383 5.1759 16.6653C4.21423 15.9477 3.50211 14.9462 3.14001 13.8022C3.4955 13.8744 3.85722 13.9113 4.21997 13.9122C4.7307 13.9139 5.23911 13.8432 5.72998 13.7022C4.42848 13.4428 3.25739 12.7397 2.41663 11.7129C1.57586 10.6861 1.11756 9.39929 1.12 8.07219V8.00218C1.9173 8.44498 2.80847 8.69178 3.71997 8.72219C2.93426 8.19695 2.29043 7.48583 1.84558 6.65197C1.40074 5.8181 1.16872 4.88729 1.17004 3.94219C1.16598 2.92631 1.43531 1.92805 1.94995 1.05217C3.3926 2.8264 5.19229 4.27745 7.23206 5.31111C9.27182 6.34478 11.5062 6.93796 13.79 7.05217C13.6892 6.62284 13.6388 6.1832 13.64 5.74218C13.6416 4.59041 13.9889 3.46564 14.6372 2.51363C15.2855 1.56162 16.2048 0.82624 17.2759 0.402759C18.347 -0.0207217 19.5205 -0.11276 20.6445 0.138538C21.7686 0.389836 22.7912 0.972891 23.58 1.81218C24.8633 1.55833 26.0941 1.08829 27.22 0.422168C26.7886 1.75013 25.8942 2.87879 24.7 3.60219C25.8393 3.46593 26.9518 3.15917 28 2.69219C27.2249 3.85134 26.2537 4.86653 25.13 5.69219C25.13 5.93219 25.13 6.18218 25.13 6.43218C25.13 14.0222 19.35 22.7722 8.78003 22.7722" fill="#1D9BF0"/>
</svg>
