<svg width="126" height="37" viewBox="0 0 126 37" fill="none" xmlns="http://www.w3.org/2000/svg">
<g clip-path="url(#clip0_1033_1533)">
<path d="M15.2702 36.9617C15.4464 37.0104 15.6326 37.0104 15.8087 36.9617L16.3507 36.8154C19.8473 35.7705 25.7601 31.9949 27.1902 30.5843L27.393 30.3892C28.7566 29.0901 32.9106 25.1299 30.1902 17.8783C29.734 16.7506 29.4181 15.5716 29.2497 14.3674C29.0224 10.7973 30.6623 6.9904 30.6763 6.96602L30.977 6.30076C31.0328 6.17437 31.057 6.03631 31.0472 5.89855C31.0375 5.76078 30.9942 5.62746 30.921 5.51012L29.7846 3.67457C29.6993 3.53705 29.5763 3.42664 29.4301 3.35631C29.2839 3.28598 29.1207 3.25864 28.9594 3.27751L28.0259 3.39245C27.5687 3.44875 27.1088 3.47898 26.6482 3.48301C25.8063 3.53098 24.9713 3.30747 24.267 2.84562C20.2249 0.205498 16.7598 0 15.7947 0H15.2842C14.3367 0 10.8401 0.205498 6.81197 2.84562C6.10764 3.30747 5.27266 3.53098 4.43079 3.48301C3.96994 3.47447 3.50996 3.43958 3.05313 3.37852L2.11954 3.26358C1.95828 3.24428 1.79484 3.27142 1.64859 3.34179C1.50234 3.41216 1.3794 3.52282 1.29434 3.66064L0.154447 5.49619C0.0816055 5.61371 0.0387435 5.7472 0.0296012 5.88502C0.0204589 6.02283 0.0453142 6.16078 0.101998 6.28683L0.399209 6.96602C0.416692 7.00433 2.07058 10.8147 1.8468 14.3813C1.67713 15.5804 1.36249 16.7545 0.909713 17.8783C-1.82113 25.1299 2.33633 29.0901 3.70699 30.3892L3.9098 30.5843C5.30844 31.9775 11.2282 35.767 14.7493 36.8154L15.2702 36.9617Z" fill="#00374D"/>
<path d="M14.7317 13.5419C14.6107 13.176 14.4074 12.8424 14.1372 12.5667C13.9257 12.3364 13.6701 12.1505 13.3855 12.0199C13.0517 11.8866 12.6961 11.8157 12.3365 11.8109C11.8593 11.8058 11.3908 11.9376 10.9868 12.1905V10.449H14.7282V8.76324H9.40284V14.3047H10.9204L10.9658 14.2176C11.0747 13.9919 11.241 13.7985 11.4484 13.6569C11.6294 13.5578 11.8327 13.5063 12.0393 13.5071C12.2502 13.4997 12.4606 13.534 12.6582 13.6081C12.804 13.6797 12.9256 13.7923 13.0078 13.932C13.1887 14.3306 13.2702 14.7667 13.2456 15.2033C13.2456 15.4262 13.2456 15.6596 13.2456 15.8999C13.2315 16.1164 13.1868 16.3298 13.1127 16.5338C13.0528 16.7065 12.9388 16.8554 12.7875 16.9588C12.5778 17.0865 12.3335 17.1461 12.0882 17.1294C11.798 17.1527 11.5102 17.0612 11.2871 16.8748C11.0639 16.6884 10.9234 16.4221 10.8959 16.1333L10.8714 16.0044H9.20703L9.235 16.1855C9.26405 16.5768 9.3719 16.9583 9.55212 17.3071C9.73234 17.656 9.98124 17.9651 10.284 18.2161C10.8207 18.6115 11.4733 18.8196 12.1407 18.8082C12.5991 18.8119 13.0498 18.6915 13.4449 18.4599C13.7726 18.2785 14.0604 18.0333 14.2911 17.739C14.5184 17.4627 14.683 17.1407 14.7736 16.7951C14.8758 16.312 14.9204 15.8187 14.9065 15.3252C14.9065 14.9177 14.9065 14.5659 14.868 14.2803C14.8512 14.0298 14.8055 13.782 14.7317 13.5419Z" fill="white"/>
<path d="M19.0359 8.76324L17.5918 9.83601V11.7134L18.9275 10.7068V18.7386H20.5919V8.76324H19.0359Z" fill="white"/>
<path d="M22.5538 21.525H8.52539V22.1415H22.5538V21.525Z" fill="white"/>
<path d="M15.5394 34.7848C15.5092 34.7882 15.4787 34.7882 15.4485 34.7848L15.3331 34.75C12.1687 33.7852 6.52169 30.1385 5.43774 29.0587L5.21746 28.8463H5.19648C3.84679 27.5506 0.699851 24.5552 2.94117 18.6376C3.16845 18.0315 3.92372 15.9382 4.01113 14.4998C4.2454 10.7625 2.73837 6.92769 2.44815 6.19974C2.42412 6.15158 2.41162 6.09853 2.41162 6.04475C2.41162 5.99097 2.42412 5.93792 2.44815 5.88976L2.57053 5.69471C2.60512 5.64037 2.65414 5.59663 2.71215 5.56835C2.77017 5.54007 2.83492 5.52835 2.89921 5.53449C3.40403 5.59441 3.91185 5.6258 4.42023 5.62853C5.68353 5.68062 6.93163 5.33845 7.99026 4.64981C11.6302 2.28136 14.7037 2.15945 15.2842 2.15945H15.7947C16.3716 2.15945 19.4486 2.28136 23.0781 4.64981C24.1365 5.33888 25.3848 5.68109 26.6481 5.62853C27.1565 5.6258 27.6643 5.59441 28.1691 5.53449C28.2334 5.52835 28.2982 5.54007 28.3562 5.56835C28.4142 5.59663 28.4632 5.64037 28.4978 5.69471L28.6202 5.88976C28.6481 5.93601 28.6648 5.98808 28.6691 6.04188C28.6733 6.09567 28.665 6.14972 28.6447 6.19974C28.3405 6.92769 26.8334 10.7625 27.0642 14.4998C27.1551 15.9382 27.9104 18.0315 28.1377 18.6376C30.365 24.5587 27.2216 27.5506 25.8789 28.8289L25.6411 29.0587C24.5572 30.1385 18.9101 33.7852 15.7562 34.7395L15.6268 34.7743C15.5982 34.7812 15.5689 34.7848 15.5394 34.7848ZM15.5149 34.0882H15.5394H15.5674C18.6234 33.1582 24.1061 29.623 25.1761 28.5781C25.2425 28.5084 25.3194 28.4353 25.4068 28.3517C26.6691 27.15 29.6027 24.3741 27.5048 18.8779C27.267 18.2475 26.4873 16.0741 26.3894 14.5415C26.1726 11.0342 27.4174 7.46756 27.8929 6.24851C25.6306 6.45749 24.162 6.1684 22.7109 5.2036C19.2318 2.95706 16.3401 2.84212 15.7947 2.84212H15.2842C14.7387 2.84212 11.8435 2.95706 8.37489 5.22102C6.9238 6.1684 5.45523 6.46097 3.19293 6.26592C3.66846 7.48497 4.91325 11.0516 4.69297 14.559C4.59856 16.0915 3.81882 18.2649 3.58105 18.8953C1.51106 24.3811 4.42723 27.1675 5.67202 28.3377H5.6895L5.92028 28.5572C6.96926 29.623 12.4449 33.1548 15.5149 34.0847V34.0882Z" fill="white"/>
<path d="M8.18561 26.2514C8.18383 26.0558 8.22244 25.8618 8.29904 25.6817C8.37563 25.5015 8.48858 25.3389 8.63088 25.204C8.77317 25.0691 8.94178 24.9648 9.12623 24.8976C9.31068 24.8303 9.50704 24.8015 9.70313 24.8129C9.91764 24.8054 10.1311 24.8459 10.3278 24.9315C10.5245 25.0171 10.6994 25.1456 10.8395 25.3075L10.4234 25.6872C10.3388 25.5843 10.232 25.5017 10.1109 25.4457C9.98983 25.3896 9.85762 25.3614 9.72411 25.3633C9.60702 25.3633 9.49107 25.3862 9.3829 25.4309C9.27472 25.4755 9.17643 25.5409 9.09363 25.6234C9.01083 25.7059 8.94516 25.8038 8.90035 25.9115C8.85554 26.0193 8.83248 26.1348 8.83248 26.2514C8.83248 26.3681 8.85554 26.4836 8.90035 26.5913C8.94516 26.6991 9.01083 26.797 9.09363 26.8794C9.17643 26.9619 9.27472 27.0273 9.3829 27.072C9.49107 27.1166 9.60702 27.1396 9.72411 27.1396C9.85786 27.1408 9.99017 27.1119 10.1112 27.0553C10.2323 26.9986 10.339 26.9155 10.4234 26.8122L10.8395 27.1918C10.698 27.357 10.5205 27.4877 10.3205 27.574C10.1205 27.6603 9.90337 27.7 9.68565 27.6899C9.49098 27.6989 9.29652 27.6683 9.11413 27.5999C8.93175 27.5315 8.76528 27.4268 8.62489 27.2922C8.4845 27.1576 8.37314 26.9958 8.29761 26.8169C8.22208 26.6379 8.18397 26.4455 8.18561 26.2514Z" fill="white"/>
<path d="M13.2874 27.6411L12.7629 26.8679H12.1685V27.6411H11.5391V24.8547H12.7489C13.4937 24.8547 13.9622 25.2379 13.9622 25.8613C13.9699 26.0493 13.9185 26.2349 13.815 26.3923C13.7116 26.5497 13.5613 26.6709 13.3853 26.739L13.9867 27.6411H13.2874ZM12.6825 25.3842H12.1685V26.3559H12.6964C13.0916 26.3559 13.2909 26.1713 13.2909 25.8683C13.2909 25.5653 13.0916 25.3842 12.6964 25.3842H12.6825Z" fill="white"/>
<path d="M16.5283 27.0455H15.2346L14.9863 27.6411H14.3359L15.5807 24.8547H16.2171L17.4654 27.6411H16.7836L16.5283 27.0455ZM16.3255 26.5579L15.8849 25.4921L15.4409 26.5579H16.3255Z" fill="white"/>
<path d="M18.4844 25.3772V26.1225H19.7746V26.638H18.4844V27.6516H17.834V24.8652H19.9319V25.3807L18.4844 25.3772Z" fill="white"/>
<path d="M21.3506 25.3841H20.459V24.8617H22.8891V25.3841H21.9975V27.6411H21.3506V25.3841Z" fill="white"/>
<path d="M48.2756 16.8682C48.6787 17.2007 48.9994 17.6213 49.2129 18.0973C49.4263 18.5733 49.5268 19.0919 49.5064 19.6128C49.5146 20.3263 49.3207 21.0277 48.947 21.6364C48.5362 22.2781 47.9453 22.7856 47.2476 23.0958C46.3613 23.4864 45.3981 23.6733 44.4294 23.6426C43.5725 23.6404 42.7198 23.5233 41.8943 23.2943C41.1355 23.1023 40.4177 22.7754 39.7754 22.3296L40.8908 20.2014C41.376 20.5594 41.9187 20.8326 42.4957 21.0095C43.0983 21.2012 43.7269 21.2987 44.3594 21.2986C44.9473 21.3309 45.5312 21.1852 46.0343 20.8806C46.2286 20.756 46.3871 20.5833 46.4944 20.3794C46.6016 20.1755 46.654 19.9474 46.6462 19.7173C46.6571 19.4816 46.6037 19.2473 46.4916 19.0394C46.3796 18.8315 46.2131 18.6578 46.0098 18.5366C45.5832 18.2533 44.8478 18.1116 43.8035 18.1116H40.681L41.3104 11.2675H48.7547V13.5245H43.6636L43.4713 15.8337H44.4643C46.1847 15.8384 47.4551 16.1832 48.2756 16.8682Z" fill="#00374D"/>
<path d="M56.7612 11.2745V23.4337H53.9359V13.5315H51.4883V11.2745H56.7612Z" fill="#00374D"/>
<path d="M63.5197 22.8346C62.5377 22.3183 61.7165 21.5437 61.1456 20.595C60.5643 19.6136 60.2655 18.4917 60.2819 17.3524C60.2656 16.2141 60.5644 15.0934 61.1456 14.1132C61.7156 13.1637 62.537 12.3889 63.5197 11.8736C64.5642 11.3247 65.7307 11.0468 66.9115 11.0655C67.8953 11.0512 68.8715 11.2397 69.7787 11.6193C70.6148 11.9809 71.3529 12.5347 71.9326 13.2354L70.1213 14.9038C69.7499 14.4519 69.2811 14.0891 68.7496 13.8425C68.2181 13.5958 67.6376 13.4717 67.0513 13.4793C66.3499 13.4627 65.6561 13.6271 65.0373 13.9564C64.4475 14.2788 63.9623 14.7621 63.6386 15.3496C63.3123 15.9715 63.1419 16.6628 63.1419 17.3645C63.1419 18.0663 63.3123 18.7576 63.6386 19.3795C63.9623 19.967 64.4475 20.4503 65.0373 20.7727C65.657 21.0993 66.3504 21.2624 67.0513 21.2464C67.6392 21.2528 68.2209 21.1264 68.7526 20.8767C69.2844 20.6269 69.7523 20.2603 70.1213 19.8044L71.9326 21.4693C71.3549 22.1749 70.6131 22.7297 69.7717 23.0854C68.8614 23.4671 67.8815 23.6569 66.894 23.6427C65.7189 23.66 64.5585 23.3821 63.5197 22.8346Z" fill="#00374D"/>
<path d="M83.0104 23.4337L80.6537 20.0447H78.0557V23.4337H75.2305V11.2745H80.5138C81.4809 11.2513 82.4418 11.4342 83.3321 11.8109C84.0813 12.1317 84.7204 12.663 85.1713 13.3399C85.6112 14.0381 85.8361 14.8494 85.8182 15.6735C85.8483 16.4927 85.6227 17.301 85.1725 17.9872C84.7222 18.6733 84.0695 19.2036 83.3041 19.5048L86.0455 23.4128L83.0104 23.4337ZM82.2936 14.1131C81.7295 13.7173 81.0444 13.53 80.3565 13.5837H78.0557V17.8051H80.3565C81.0481 17.8541 81.7347 17.6566 82.2936 17.2478C82.5161 17.0551 82.6915 16.8144 82.8066 16.544C82.9217 16.2737 82.9735 15.9807 82.958 15.6875C82.9757 15.3919 82.925 15.0962 82.8098 14.8233C82.6946 14.5503 82.518 14.3073 82.2936 14.1131Z" fill="#00374D"/>
<path d="M97.485 20.8284H91.817L90.7331 23.4337H87.8379L93.2821 11.2745H96.0794L101.538 23.4337H98.5725L97.485 20.8284ZM96.5934 18.6898L94.6598 14.0365L92.7226 18.6898H96.5934Z" fill="#00374D"/>
<path d="M107.024 13.5315V16.7463H112.675V19.0033H107.024V23.4337H104.199V11.2745H113.427V13.5315H107.024Z" fill="#00374D"/>
<path d="M119.271 13.5837H115.361V11.2745H126.001V13.5837H122.096V23.4337H119.271V13.5837Z" fill="#00374D"/>
</g>
<defs>
<clipPath id="clip0_1033_1533">
<rect width="126" height="37" fill="white"/>
</clipPath>
</defs>
</svg>
