<svg width="92" height="57" viewBox="0 0 92 57" fill="none" xmlns="http://www.w3.org/2000/svg">
<path d="M76.0899 32.6372C76.1557 31.8241 76.1916 31.002 76.1916 30.171C76.1916 22.1692 73.0108 14.4951 67.3491 8.83689C61.6874 3.17872 54.0084 0 46.0015 0C37.9946 0 30.3156 3.17872 24.6539 8.83689C18.9922 14.4951 15.8114 22.1692 15.8114 30.171C15.8114 31.002 15.8473 31.8241 15.9131 32.6372H0V57H92V32.6372H76.0899Z" fill="#F3D440"/>
<path d="M22.7576 25.5227C22.7795 25.5237 22.801 25.5167 22.8181 25.5029C22.8352 25.4891 22.8466 25.4696 22.8503 25.4479L22.8951 25.1759L23.2541 25.2357L23.0148 26.7094L22.6559 26.6496L22.7007 26.3806C22.7046 26.3589 22.7003 26.3365 22.6887 26.3178C22.6771 26.299 22.659 26.2852 22.6379 26.2789L21.0107 26.0069L20.9748 26.2371C20.9269 26.536 21.244 26.6197 21.5192 26.6825L21.4654 27.0263L20.4902 26.8708L20.912 24.2612L21.8841 24.4166L21.8363 24.7634C21.5372 24.7335 21.238 24.7036 21.1752 25.0354L21.1393 25.2596L22.7576 25.5227Z" fill="#582C15"/>
<path d="M21.9971 20.5156C22.0492 20.3441 22.1365 20.1854 22.2534 20.0495C22.3703 19.9137 22.5143 19.8037 22.6762 19.7266C22.8381 19.6495 23.0142 19.607 23.1934 19.6019C23.3727 19.5967 23.551 19.6289 23.7171 19.6965C24.4708 19.9954 24.7191 20.7009 24.432 21.4512C24.1448 22.2015 23.4688 22.5812 22.733 22.2942C21.9971 22.0072 21.713 21.2599 21.9971 20.5156ZM24.076 21.3316C24.2585 20.8563 23.8038 20.6411 23.4209 20.4916C23.0381 20.3422 22.5236 20.1658 22.3441 20.665C22.1646 21.1642 22.6432 21.3675 23.0201 21.511C23.397 21.6545 23.8995 21.792 24.076 21.3316Z" fill="#582C15"/>
<path d="M26.6881 16.9105L26.389 16.7192L26.4817 16.5787C26.4862 16.571 26.4891 16.5624 26.49 16.5535C26.4909 16.5446 26.4899 16.5356 26.4871 16.5271C26.4843 16.5186 26.4797 16.5108 26.4736 16.5042C26.4675 16.4977 26.46 16.4925 26.4518 16.489C26.1689 16.4527 25.8819 16.4628 25.6023 16.5189C25.6023 16.5847 25.6202 16.779 25.6322 16.8328L26.033 17.0958C26.0719 17.1227 26.1347 17.1108 26.1766 17.045L26.3022 16.8537L26.6013 17.045L25.7937 18.2766L25.4946 18.0883L25.6172 17.897C25.6561 17.8402 25.6741 17.7834 25.5903 17.7296L24.331 16.9075C24.3171 16.8964 24.3009 16.8884 24.2837 16.8841C24.2664 16.8797 24.2484 16.879 24.2309 16.8822C24.2133 16.8853 24.1967 16.8921 24.182 16.9021C24.1673 16.9121 24.1549 16.9252 24.1456 16.9404L24.014 17.1437L23.7148 16.9494L24.5314 15.7028L24.8306 15.8971L24.7079 16.0855C24.6994 16.1006 24.694 16.1172 24.692 16.1344C24.6899 16.1516 24.6913 16.169 24.6961 16.1857C24.7008 16.2024 24.7088 16.2179 24.7195 16.2315C24.7303 16.2451 24.7436 16.2564 24.7588 16.2648L25.2284 16.5637C25.1686 15.8104 25.1835 15.667 25.1057 15.6161C25.0976 15.6099 25.0883 15.6054 25.0784 15.603C25.0684 15.6005 25.0581 15.6001 25.048 15.6018C25.0379 15.6035 25.0283 15.6072 25.0197 15.6127C25.0111 15.6183 25.0037 15.6256 24.9981 15.6341L24.9143 15.7596L24.6152 15.5653L25.36 14.4264L25.6591 14.6237L25.5335 14.818C25.4258 14.9824 25.5096 15.4487 25.5335 15.8164C25.5335 15.8164 26.1317 15.7566 26.8765 15.7058C27.0171 15.7058 27.0829 15.5982 27.1756 15.4816L27.4748 15.6819L26.6881 16.9105Z" fill="#582C15"/>
<path d="M28.7665 13.688L28.955 13.4967C29.0178 13.4339 28.955 13.3562 28.9131 13.3114L28.5661 12.9676L27.3697 12.7703C27.3314 12.759 27.2907 12.7595 27.2528 12.7718C27.2149 12.7841 27.1816 12.8075 27.1573 12.8391L27.0765 12.9198L26.8223 12.6687L27.8183 11.6583L28.0726 11.9094L27.8961 12.0858C27.8839 12.0999 27.8772 12.1179 27.8772 12.1366C27.8772 12.1552 27.8839 12.1733 27.8961 12.1874C27.938 12.2292 28.0307 12.2352 28.6678 12.3458C28.5691 11.7121 28.5661 11.6164 28.5153 11.5656C28.5085 11.558 28.5003 11.5519 28.491 11.5477C28.4817 11.5435 28.4716 11.5413 28.4614 11.5413C28.4513 11.5413 28.4412 11.5435 28.4319 11.5477C28.4226 11.5519 28.4143 11.558 28.4076 11.5656L28.2461 11.727L27.9918 11.4789L28.7994 10.6658L29.0507 10.9169L28.9969 10.9737C28.9628 10.9991 28.9345 11.0314 28.9138 11.0685C28.8932 11.1056 28.8807 11.1467 28.8772 11.189L29.0716 12.3847L29.4874 12.8002C29.5682 12.8809 29.628 12.8271 29.6759 12.7793L29.8314 12.6208L30.0827 12.8689L29.0148 13.9421L28.7665 13.688Z" fill="#582C15"/>
<path d="M31.7217 8.37003C31.8632 8.25988 32.0262 8.18046 32.2002 8.13686C32.3742 8.09325 32.5554 8.08643 32.7323 8.11681C32.9091 8.1472 33.0776 8.21413 33.227 8.31333C33.3765 8.41252 33.5035 8.54179 33.6001 8.69287C34.0488 9.36547 33.8364 10.0949 33.1664 10.5403C32.4964 10.9857 31.7247 10.905 31.282 10.2413C30.8393 9.57771 31.0576 8.81843 31.7217 8.37003ZM32.9481 10.2383C33.3698 9.93941 33.1245 9.51493 32.8972 9.17415C32.6699 8.83337 32.3648 8.39394 31.9191 8.68989C31.4734 8.98583 31.7605 9.44319 31.9819 9.77201C32.2032 10.1008 32.5353 10.5193 32.9481 10.2443V10.2383Z" fill="#582C15"/>
<path d="M40.2193 5.70061L39.8783 5.79626C39.8783 5.79626 39.7915 5.65278 39.7676 5.63185C39.6776 5.52715 39.5582 5.45182 39.4249 5.41558C39.2916 5.37935 39.1505 5.38388 39.0198 5.42858C38.8493 5.47641 38.622 5.59598 38.6818 5.80224C38.6911 5.84416 38.7153 5.88125 38.75 5.90656C38.7847 5.93187 38.8275 5.94368 38.8702 5.93975L39.7407 5.91285C40.1445 5.8979 40.4496 6.02046 40.5633 6.43597C40.7128 6.96807 40.309 7.36565 39.8215 7.50017C39.5488 7.58539 39.2566 7.58539 38.9839 7.50017C38.96 7.67952 38.96 7.70045 38.951 7.70344L38.622 7.79312L38.3647 6.8754L38.7177 6.77675C38.7965 6.94881 38.937 7.08509 39.1114 7.15869C39.2859 7.23229 39.4816 7.23787 39.6599 7.17433C39.8274 7.1265 40.0907 6.99796 40.0278 6.77376C39.9979 6.65718 39.8813 6.63327 39.7676 6.63626L38.8433 6.66017C38.6811 6.67212 38.5199 6.62651 38.3881 6.53137C38.2562 6.43623 38.1621 6.29765 38.1225 6.14003C37.9759 5.61392 38.3767 5.24324 38.8613 5.09976C39.1005 5.0341 39.3524 5.02897 39.5941 5.08481L39.633 4.92339L39.965 4.83072L40.2193 5.70061Z" fill="#582C15"/>
<path d="M43.8778 6.27752C43.8827 6.29885 43.895 6.31775 43.9125 6.33089C43.93 6.34402 43.9516 6.35053 43.9735 6.34926L44.2457 6.32834L44.2756 6.69005L42.78 6.80663L42.7501 6.44492L43.0283 6.42101C43.0494 6.41949 43.0692 6.41001 43.0837 6.39448C43.0981 6.37894 43.1061 6.35851 43.106 6.33731L42.9984 4.78287C42.9954 4.76173 42.9844 4.74253 42.9677 4.72919C42.9511 4.71586 42.9299 4.70939 42.9086 4.71113L42.6304 4.73205L42.6035 4.37035L44.2726 4.23882C44.7273 4.20295 45.1939 4.37334 45.2328 4.88152C45.2393 4.97484 45.2272 5.06852 45.1973 5.15715C45.1674 5.24579 45.1202 5.32762 45.0584 5.39793C44.9967 5.46825 44.9216 5.52564 44.8376 5.56682C44.7535 5.60799 44.6622 5.63212 44.5687 5.63781L43.8478 5.69461L43.8778 6.27752ZM43.809 5.34187L44.1709 5.31198C44.3893 5.29703 44.47 5.13262 44.47 4.92636C44.47 4.7201 44.3474 4.58558 44.135 4.60351L43.7641 4.63042L43.809 5.34187Z" fill="#582C15"/>
<path d="M48.574 6.33732C48.5739 6.35931 48.5822 6.3805 48.5972 6.39659C48.6122 6.41269 48.6328 6.42249 48.6547 6.424L48.9299 6.45091L48.894 6.81261L47.3984 6.66614L47.4343 6.30443L47.7095 6.33433C47.7312 6.33613 47.7527 6.32977 47.7699 6.31649C47.787 6.3032 47.7986 6.28397 47.8022 6.26258L47.9578 4.70217C47.9586 4.68045 47.951 4.65927 47.9365 4.64309C47.9219 4.62692 47.9017 4.61701 47.88 4.61548L47.6018 4.58857L47.6377 4.22687L49.1333 4.37334L49.0974 4.73206L48.8252 4.70516C48.8032 4.70326 48.7813 4.70952 48.7637 4.72276C48.746 4.73599 48.7338 4.75527 48.7295 4.7769L48.574 6.33732Z" fill="#582C15"/>
<path d="M52.9435 5.08182C53.1889 5.14858 53.4093 5.28577 53.5776 5.47641L53.7032 5.33292L54.0322 5.42559L53.766 6.36423L53.4131 6.27754C53.428 5.88893 53.3562 5.61691 52.9405 5.50032C52.432 5.35684 52.2136 5.79925 52.094 6.22971C51.9743 6.66017 51.9713 7.09362 52.4679 7.23412C52.551 7.26693 52.6402 7.28127 52.7295 7.27616C52.8187 7.27104 52.9057 7.24659 52.9846 7.2045C53.0634 7.16241 53.1321 7.10369 53.186 7.03241C53.2398 6.96113 53.2775 6.87899 53.2964 6.7917L53.6673 6.89633C53.4759 7.57191 52.8148 7.76921 52.2136 7.59881C52.0434 7.56087 51.883 7.48803 51.7425 7.38491C51.6019 7.28178 51.4844 7.15061 51.3972 6.99971C51.31 6.8488 51.2552 6.68146 51.2361 6.50826C51.217 6.33507 51.2341 6.1598 51.2863 5.99356C51.3284 5.82084 51.406 5.65875 51.5141 5.51757C51.6222 5.3764 51.7584 5.25923 51.9143 5.17349C52.0701 5.08776 52.242 5.03534 52.4192 5.01956C52.5964 5.00378 52.7749 5.02498 52.9435 5.08182Z" fill="#582C15"/>
<path d="M55.7136 8.39694C55.7325 8.40627 55.7542 8.40838 55.7745 8.40287C55.7949 8.39737 55.8126 8.38464 55.8242 8.36705L56.5331 6.97703C56.5436 6.95315 56.5444 6.92619 56.5355 6.90172C56.5266 6.87724 56.5086 6.85712 56.4853 6.8455L56.255 6.72592L56.4165 6.41205L58.7047 7.60777L58.2561 8.47467L57.939 8.31025C57.957 8.25944 58.0287 8.08905 58.0437 8.0472C58.0855 7.97617 58.0982 7.89176 58.0793 7.81157C58.0603 7.73137 58.0112 7.66158 57.942 7.61674L57.257 7.264L56.9579 7.82898L57.1703 7.93958C57.2145 7.9572 57.2638 7.95744 57.3081 7.94025C57.3525 7.92306 57.3888 7.88971 57.4096 7.84691L57.4933 7.68848L57.7924 7.85289L57.2809 8.83936L56.9998 8.66897L57.0805 8.51353C57.1523 8.37303 57.1075 8.30727 57.0237 8.26243L56.8053 8.14883L56.4733 8.78854L57.1822 9.15623C57.3826 9.26085 57.5741 9.08747 57.6608 8.92007L57.7865 8.67794L58.1125 8.84833L57.6219 9.79295L55.3008 8.59723L55.4683 8.27438L55.7136 8.39694Z" fill="#582C15"/>
<path d="M64.2028 11.8137C64.3831 11.9919 64.506 12.2199 64.5557 12.4684L64.7382 12.4086L64.9775 12.6507L64.2805 13.3353L64.0203 13.0722C64.2267 12.7434 64.2985 12.4744 63.9964 12.1754C63.6255 11.8018 63.2097 12.0828 62.8986 12.3907C62.5875 12.6986 62.3602 13.0812 62.7221 13.4489C62.7783 13.5187 62.8489 13.5755 62.9292 13.6153C63.0095 13.6552 63.0974 13.6772 63.187 13.6797C63.2766 13.6823 63.3657 13.6654 63.4481 13.6302C63.5305 13.5949 63.6043 13.5423 63.6643 13.4758L63.9336 13.7508C63.431 14.241 62.761 14.0856 62.3213 13.6402C62.1929 13.5223 62.0905 13.3791 62.0204 13.2196C61.9503 13.06 61.9141 12.8877 61.9141 12.7135C61.9141 12.5393 61.9503 12.367 62.0204 12.2074C62.0905 12.0479 62.1929 11.9047 62.3213 11.7868C62.4435 11.6595 62.5906 11.5587 62.7534 11.4907C62.9163 11.4227 63.0914 11.3889 63.2679 11.3914C63.4444 11.3939 63.6184 11.4327 63.7793 11.5054C63.9401 11.578 64.0843 11.683 64.2028 11.8137Z" fill="#582C15"/>
<path d="M66.9249 15.9031C66.9132 15.8848 66.895 15.8715 66.8739 15.866C66.8529 15.8605 66.8305 15.863 66.8113 15.8732L65.4293 16.77L65.8122 17.3679C66.0096 17.6668 66.4105 17.338 66.578 17.2453L66.7754 17.5442L65.878 18.1272L64.4961 16.0346L64.7952 15.8433L64.9388 16.0586C64.9524 16.0806 64.9742 16.0964 64.9994 16.1026C65.0245 16.1087 65.0511 16.1047 65.0734 16.0914L66.3865 15.2455C66.4031 15.2315 66.4142 15.2122 66.4181 15.191C66.4219 15.1697 66.4181 15.1477 66.4075 15.1289L66.2549 14.8987L66.554 14.6984L67.3766 15.948L67.0775 16.1482L66.9249 15.9031Z" fill="#582C15"/>
<path d="M69.5749 21.3675L68.3785 21.8458C67.846 22.058 67.4542 21.6844 67.2149 21.0835C67.0504 20.674 67.0294 20.0433 67.514 19.846L68.7613 19.3467C68.781 19.337 68.7963 19.3202 68.8041 19.2997C68.8119 19.2792 68.8115 19.2565 68.8032 19.2361L68.7015 18.9821L69.0365 18.8475L69.5929 20.2316L69.2549 20.3661L69.1502 20.109C69.1422 20.0889 69.1271 20.0725 69.1079 20.0626C69.0887 20.0527 69.0665 20.0501 69.0455 20.0552L67.7832 20.5604C67.7387 20.5785 67.6984 20.6055 67.6648 20.6398C67.6311 20.6741 67.605 20.715 67.5879 20.7599C67.5707 20.8047 67.563 20.8527 67.5653 20.9006C67.5675 20.9486 67.5796 20.9956 67.6008 21.0387C67.7354 21.3795 67.8999 21.6126 68.2498 21.4662L69.4224 20.9998C69.4418 20.9891 69.4565 20.9715 69.4637 20.9505C69.4708 20.9295 69.47 20.9066 69.4613 20.8862L69.3686 20.6531L69.7066 20.5186L70.1164 21.5409L69.7783 21.6784L69.6766 21.4213C69.6687 21.4019 69.6542 21.3858 69.6356 21.376C69.617 21.3662 69.5955 21.3632 69.5749 21.3675Z" fill="#582C15"/>
<path d="M68.7623 24.5571C68.7623 24.6378 68.8789 24.6319 68.9298 24.6229L70.3297 24.3778C70.3745 24.3778 70.4882 24.3479 70.4732 24.2552L70.4254 23.9772L70.7724 23.9174L71.0954 25.7618C71.1214 25.8463 71.1293 25.9352 71.1186 26.0229C71.108 26.1107 71.079 26.1952 71.0336 26.271C70.9882 26.3468 70.9274 26.4122 70.8551 26.463C70.7828 26.5138 70.7006 26.5489 70.6138 26.5659C70.2668 26.6257 70.0575 26.4135 69.9528 26.0817C69.9887 26.4583 69.887 26.7752 69.4772 26.8469C69.3816 26.8612 69.284 26.8554 69.1908 26.8298C69.0976 26.8043 69.0107 26.7595 68.9358 26.6984C68.8609 26.6374 68.7996 26.5613 68.7558 26.4752C68.712 26.3891 68.6867 26.2947 68.6815 26.1983L68.3555 24.3419L68.7114 24.2791L68.7623 24.5571ZM68.9178 25.4091L68.9776 25.7528C68.9808 25.802 68.9948 25.8498 69.0188 25.8928C69.0427 25.9359 69.0759 25.9731 69.116 26.0017C69.1561 26.0303 69.2021 26.0496 69.2506 26.0583C69.2991 26.067 69.3489 26.0647 69.3964 26.0518C69.7434 25.992 69.7165 25.7528 69.6955 25.6243L69.6357 25.2805L68.9178 25.4091ZM69.9797 25.2237L70.0455 25.5884C70.0709 25.6619 70.1217 25.7238 70.1887 25.7631C70.2558 25.8024 70.3347 25.8165 70.4112 25.8028C70.4877 25.7891 70.5568 25.7485 70.606 25.6884C70.6552 25.6282 70.6813 25.5525 70.6796 25.4748L70.6168 25.1101L69.9797 25.2237Z" fill="#582C15"/>
<path d="M21.6175 29.442L20.3887 30.6701L21.6175 31.8982L22.8464 30.6701L21.6175 29.442Z" fill="#582C15"/>
<path d="M70.1859 29.4411L68.957 30.6692L70.1859 31.8973L71.4148 30.6692L70.1859 29.4411Z" fill="#582C15"/>
<path d="M17.2402 41.5154C17.2376 41.5467 17.2282 41.5771 17.2127 41.6044C17.1972 41.6318 17.176 41.6554 17.1505 41.6738L16.1514 42.466C16.0049 42.5916 15.9032 42.5916 15.7446 42.466L15.1464 41.9698H12.4274V43.1237H14.273L14.7605 42.6035C14.9071 42.4541 14.9968 42.466 15.1673 42.6035L15.4665 42.8516C15.6041 42.9652 15.6818 42.9652 15.8523 42.8516C15.8812 42.8308 15.915 42.8181 15.9504 42.8147C15.9858 42.8113 16.0214 42.8173 16.0537 42.8322C16.086 42.8471 16.1137 42.8704 16.134 42.8995C16.1544 42.9287 16.1666 42.9627 16.1694 42.9981C16.1663 43.0368 16.1531 43.0741 16.131 43.1061C16.109 43.1381 16.0789 43.1638 16.0438 43.1804L15.6609 43.4046V45.3058C15.6609 46.098 15.2182 46.4717 14.0068 46.5285L12.8731 46.5643C13.7517 47.5386 14.8883 48.2443 16.1514 48.6001C16.4506 48.6927 16.5822 48.6449 16.7048 48.5343C16.965 48.2951 17.1804 48.5911 17.0039 48.8063L16.2561 49.6762C16.2026 49.7636 16.1186 49.8281 16.0203 49.8573C15.922 49.8866 15.8164 49.8785 15.7237 49.8346C14.3606 49.2214 13.214 48.212 12.4334 46.938V49.8018C12.4465 49.9076 12.4242 50.0147 12.3701 50.1066C12.3161 50.1985 12.2332 50.2699 12.1343 50.3099L11.6916 50.5132C11.6284 50.546 11.5592 50.5653 11.4882 50.57C11.3655 50.57 11.2848 50.4684 11.2848 50.2711V47.5986C10.537 48.7196 9.37042 49.4909 8.17095 50.011C7.81799 50.1575 7.67142 50.1126 7.57271 49.9213C7.49885 49.7794 7.40407 49.6494 7.29154 49.5357C7.19882 49.446 7.08814 49.467 6.93858 49.5357C6.91085 49.5514 6.87949 49.5595 6.84764 49.5593C6.81579 49.5591 6.78454 49.5505 6.75702 49.5345C6.72949 49.5185 6.70664 49.4955 6.69074 49.468C6.67484 49.4404 6.66644 49.4091 6.66639 49.3773C6.66885 49.3414 6.68063 49.3069 6.70056 49.277C6.7205 49.2471 6.7479 49.2229 6.78005 49.2069L7.55178 48.7435C7.62214 48.6819 7.71249 48.648 7.80603 48.648C7.89957 48.648 7.98992 48.6819 8.06028 48.7435C8.22574 48.8944 8.36698 49.0699 8.47905 49.2637C9.43779 48.6077 10.1512 47.6518 10.5071 46.5464C10.3934 46.5464 10.0674 46.5464 9.852 46.5225C8.57177 46.4777 8.19787 46.092 8.19787 45.2999V43.5691C8.19787 43.3777 8.11711 43.3538 7.95858 43.4555C7.9325 43.4749 7.90181 43.4873 7.86951 43.4914C7.83721 43.4955 7.8044 43.4912 7.77428 43.4789C7.74415 43.4665 7.71774 43.4466 7.69762 43.421C7.6775 43.3954 7.66435 43.3651 7.65946 43.3329C7.65989 43.2934 7.67059 43.2548 7.69052 43.2207C7.71045 43.1866 7.73892 43.1583 7.77312 43.1386L8.5299 42.6304C8.58208 42.5812 8.6511 42.5538 8.72283 42.5538C8.79456 42.5538 8.86358 42.5812 8.91576 42.6304L9.514 43.1057H11.3087V41.9518H7.44409C7.27491 41.9549 7.11004 42.0057 6.96849 42.0983C6.93731 42.1178 6.90156 42.1286 6.86483 42.1299C6.8281 42.1311 6.79169 42.1227 6.75925 42.1054C6.72682 42.0882 6.6995 42.0627 6.68005 42.0315C6.6606 42.0004 6.6497 41.9646 6.64844 41.9279C6.65286 41.8853 6.66773 41.8445 6.69173 41.8091C6.71574 41.7736 6.74813 41.7446 6.78603 41.7247L7.54579 41.2613C7.60754 41.2072 7.68786 41.1792 7.76987 41.1831C7.85188 41.187 7.92918 41.2225 7.9855 41.2822L8.3594 41.6111H11.2818V41.0461L11.0096 40.8428C10.875 40.7382 10.9079 40.6276 11.0545 40.5439L11.6228 40.245C11.6967 40.1961 11.7825 40.1682 11.8711 40.1642C11.9461 40.1672 12.0179 40.1956 12.0745 40.245L12.3736 40.4602C12.5082 40.5618 12.5441 40.5499 12.7235 40.4811C12.7484 40.473 12.7748 40.471 12.8006 40.4752C12.8264 40.4793 12.8509 40.4896 12.8719 40.5051C12.893 40.5205 12.91 40.5408 12.9217 40.5642C12.9333 40.5876 12.9392 40.6134 12.9389 40.6395C12.9377 40.6715 12.9275 40.7024 12.9095 40.7289C12.8915 40.7553 12.8665 40.7761 12.8372 40.789L12.4304 40.9803V41.6141H15.1464L15.7446 41.0371C15.8912 40.8906 15.9929 40.8906 16.1514 41.0371L16.5493 41.3988C16.6958 41.5244 16.7317 41.5244 16.9232 41.3779C16.9508 41.3553 16.9841 41.3408 17.0195 41.3359C17.0549 41.331 17.0909 41.3359 17.1236 41.3501C17.1564 41.3643 17.1846 41.3872 17.2052 41.4164C17.2257 41.4456 17.2379 41.4798 17.2402 41.5154ZM9.37939 43.4495V44.4928H11.2818V43.4495H9.37939ZM10.3306 46.2116C10.6297 46.2116 10.9528 46.2355 11.2818 46.2355V44.8395H9.37939V45.4374C9.37939 45.9964 9.61869 46.1907 10.3306 46.2116ZM12.4244 43.4495V44.4928H14.4405V43.4495H12.4244ZM14.4435 45.4374V44.8395H12.4274V46.2445C12.8013 46.2445 13.1632 46.2445 13.4923 46.2206C14.1593 46.1907 14.4435 45.9964 14.4435 45.4374Z" fill="#582C15"/>
<path d="M22.3705 47.8049C21.9054 48.6533 21.1782 49.3286 20.2976 49.73C20.0254 49.8645 19.8668 49.8884 19.7651 49.73C19.699 49.6317 19.6228 49.5406 19.5378 49.458C19.4481 49.3653 19.3912 49.4012 19.3015 49.458C19.1519 49.5477 19.0293 49.458 19.0293 49.3444C19.0314 49.3115 19.0419 49.2798 19.0597 49.252C19.0775 49.2243 19.102 49.2016 19.131 49.186L19.7292 48.8123C19.7804 48.7659 19.8471 48.7402 19.9162 48.7402C19.9853 48.7402 20.0519 48.7659 20.1031 48.8123C20.2144 48.9152 20.3146 49.0294 20.4023 49.1531C20.8505 48.7101 21.162 48.1477 21.2996 47.5329C21.3235 47.3744 21.2428 47.3505 21.1171 47.3984C20.9915 47.4462 20.8808 47.3625 20.8808 47.2728C20.8808 47.1831 20.9257 47.1383 21.0274 47.0905L21.835 46.7646C22.0624 46.672 22.1521 46.6959 22.2658 46.8991L22.4722 47.2489C22.538 47.3625 22.6068 47.3864 22.7982 47.3505C22.8223 47.3433 22.8478 47.3416 22.8727 47.3455C22.8976 47.3495 22.9213 47.359 22.942 47.3733C22.9627 47.3877 22.9798 47.4066 22.9922 47.4285C23.0046 47.4504 23.0119 47.4749 23.0136 47.5C23.0136 47.5658 22.9687 47.6345 22.855 47.6674L22.3705 47.8049ZM29.6301 41.895C29.6274 41.9264 29.618 41.9567 29.6025 41.9841C29.587 42.0114 29.5658 42.0351 29.5403 42.0535L28.5413 42.8456C28.3947 42.9712 28.293 42.9712 28.1345 42.8456L27.5362 42.3464H20.0583C19.8893 42.3506 19.7247 42.4013 19.5827 42.4929C19.5525 42.51 19.5183 42.519 19.4836 42.5189C19.4489 42.5189 19.4148 42.5098 19.3847 42.4926C19.3545 42.4755 19.3294 42.4507 19.3116 42.4209C19.2939 42.3911 19.2842 42.3572 19.2835 42.3225C19.2836 42.2807 19.295 42.2397 19.3166 42.2039C19.3382 42.1681 19.3692 42.1388 19.4062 42.1192L20.1779 41.6559C20.2402 41.6013 20.3214 41.5732 20.4041 41.5777C20.4869 41.5822 20.5646 41.6188 20.6206 41.6798L20.9825 42.0057H27.5332L28.1315 41.4287C28.2781 41.2822 28.3798 41.2822 28.5383 41.4287L28.9361 41.7904C29.0827 41.916 29.1066 41.904 29.298 41.7695C29.3257 41.7462 29.3591 41.7308 29.3948 41.7247C29.4304 41.7187 29.4671 41.7222 29.5009 41.735C29.5347 41.7478 29.5645 41.7694 29.5872 41.7975C29.6099 41.8256 29.6247 41.8593 29.6301 41.895ZM25.0206 46.9111V49.0036C25.0396 49.1672 25.0086 49.3327 24.9318 49.4783C24.8549 49.624 24.7357 49.743 24.5899 49.8197C24.3521 49.9955 24.1022 50.1543 23.8421 50.295C23.7417 50.3665 23.624 50.4098 23.5011 50.4205C23.4514 50.419 23.4025 50.407 23.3577 50.3853C23.3129 50.3637 23.2731 50.3329 23.2409 50.295L22.5739 49.6373C22.5361 49.599 22.5143 49.5478 22.5129 49.494C22.5115 49.4402 22.5306 49.3879 22.5663 49.3476C22.602 49.3073 22.6517 49.2821 22.7053 49.2771C22.7589 49.2721 22.8124 49.2876 22.855 49.3205L23.1272 49.5596C23.3084 49.4675 23.4772 49.353 23.6297 49.2188C23.694 49.1683 23.7445 49.1023 23.7764 49.0271C23.8083 48.9518 23.8206 48.8697 23.8122 48.7884V46.2534C23.2893 46.2476 22.7671 46.2137 22.2478 46.1518C21.2069 46.0173 20.9676 45.7662 20.9676 45.1773V43.8441C20.9676 43.7514 20.8539 43.7424 20.7313 43.8082C20.6918 43.828 20.6464 43.8326 20.6038 43.8211C20.5611 43.8096 20.5243 43.7827 20.5002 43.7457C20.4761 43.7087 20.4665 43.6641 20.4733 43.6205C20.4801 43.5769 20.5027 43.5373 20.5369 43.5093L21.3744 43.0011C21.5808 42.8755 21.7034 42.8755 21.841 43.0011L22.3166 43.4286H26.3787L26.8094 42.9772C26.9559 42.8187 27.0576 42.8307 27.2162 42.9533L27.7037 43.3449C27.7935 43.4226 27.8982 43.4226 28.0567 43.3449C28.0855 43.3253 28.1191 43.3139 28.1539 43.312C28.1886 43.3101 28.2233 43.3177 28.254 43.334C28.2848 43.3503 28.3105 43.3747 28.3285 43.4045C28.3464 43.4343 28.3559 43.4685 28.3558 43.5033C28.3554 43.5382 28.3442 43.572 28.3239 43.6004C28.3036 43.6287 28.275 43.6501 28.2422 43.6617L27.7097 43.9218V45.1653C27.7097 45.6197 27.5303 45.9934 26.5551 46.1279C25.8602 46.2098 25.1611 46.2517 24.4613 46.2534L24.7993 46.4687C24.8785 46.5093 24.9426 46.5742 24.9824 46.6537C25.0222 46.7333 25.0356 46.8234 25.0206 46.9111ZM22.9119 45.823C23.8474 45.8736 24.785 45.8736 25.7206 45.823C26.3338 45.7692 26.4923 45.6197 26.4923 45.1325V43.7634H22.2V45.1384C22.2 45.6078 22.2777 45.7662 22.9119 45.823ZM23.0614 40.9684L23.9767 40.2778C24.041 40.2136 24.1255 40.1734 24.216 40.1642C24.2604 40.1688 24.3034 40.1823 24.3425 40.2039C24.3815 40.2255 24.4158 40.2547 24.4434 40.2898C24.6 40.4502 24.7469 40.6199 24.8831 40.798C24.9967 40.9445 25.0536 40.9564 25.3018 40.798C25.3289 40.7782 25.3608 40.766 25.3942 40.7626C25.4276 40.7593 25.4613 40.7649 25.4918 40.7789C25.5223 40.7929 25.5485 40.8148 25.5677 40.8424C25.5869 40.8699 25.5984 40.902 25.6009 40.9355C25.5973 40.9691 25.5864 41.0016 25.5688 41.0305C25.5512 41.0595 25.5275 41.0842 25.4992 41.1029L24.5271 41.8502C24.3686 41.9638 24.228 41.9638 24.1412 41.8293C23.9952 41.6254 23.8342 41.4325 23.6597 41.2524C23.5251 41.1178 23.4443 41.1627 23.2858 41.2763C23.2663 41.2975 23.2424 41.3141 23.2157 41.325C23.189 41.3358 23.1602 41.3406 23.1315 41.339C23.1027 41.3374 23.0747 41.3294 23.0494 41.3157C23.0241 41.3019 23.0022 41.2827 22.9852 41.2594C22.9683 41.2361 22.9567 41.2094 22.9513 41.1811C22.946 41.1528 22.947 41.1237 22.9543 41.0958C22.9616 41.068 22.975 41.0421 22.9935 41.0201C23.012 40.998 23.0352 40.9804 23.0614 40.9684ZM29.2681 48.9707C29.2675 49.0128 29.254 49.0537 29.2294 49.0879C29.2048 49.1222 29.1703 49.148 29.1305 49.162L28.2332 49.5716C27.9939 49.6822 27.8264 49.6164 27.6679 49.3563C27.2604 48.6995 26.7939 48.0811 26.274 47.509C26.1483 47.3744 26.0586 47.3625 25.8313 47.4312C25.8026 47.4408 25.7721 47.4434 25.7423 47.4387C25.7124 47.4341 25.6841 47.4223 25.6598 47.4044C25.6355 47.3865 25.6158 47.3631 25.6024 47.336C25.589 47.3089 25.5824 47.2791 25.583 47.2489C25.583 47.1831 25.6279 47.1144 25.7415 47.0815L26.5671 46.8304C26.7944 46.7646 26.9081 46.7975 27.1235 47.0127C27.6498 47.5331 28.1311 48.0971 28.5622 48.6987C28.6968 48.89 28.7656 48.902 28.981 48.8003C29.0103 48.7823 29.0439 48.7726 29.0783 48.7723C29.1128 48.772 29.1466 48.7811 29.1762 48.7987C29.2058 48.8162 29.23 48.8415 29.2462 48.8719C29.2624 48.9022 29.27 48.9364 29.2681 48.9707Z" fill="#582C15"/>
<path d="M40.806 49.0993C40.806 49.177 40.7282 49.2577 40.5786 49.2816L39.4928 49.4281C39.1518 49.473 39.0501 49.4281 38.8946 49.177C38.3832 48.3539 37.915 47.5048 37.4917 46.6331C37.39 46.4269 37.2973 46.3342 37.1747 46.3133C36.2773 47.7511 34.9761 48.7705 33.3788 49.5507C33.2822 49.6081 33.1738 49.6429 33.0618 49.6523C33.0185 49.6514 32.9762 49.6397 32.9386 49.6183C32.901 49.5969 32.8693 49.5665 32.8464 49.5298C32.757 49.3782 32.6416 49.2436 32.5054 49.1322C32.3828 49.0664 32.2811 49.0993 32.1225 49.189C32.0813 49.2149 32.0319 49.2247 31.9838 49.2164C31.9358 49.2082 31.8925 49.1824 31.8623 49.1441C31.8314 49.1108 31.8143 49.067 31.8145 49.0216C31.8196 48.9888 31.8316 48.9575 31.8496 48.9297C31.8676 48.9019 31.8913 48.8782 31.9191 48.8601C32.0657 48.7495 32.5174 48.4536 32.7896 48.2832C32.8488 48.2447 32.9179 48.2243 32.9885 48.2243C33.0591 48.2243 33.1282 48.2447 33.1874 48.2832C33.3654 48.4338 33.5287 48.601 33.675 48.7824C35.4398 47.775 36.8576 45.5121 36.9653 42.3076H34.2224L33.657 42.7949C33.5105 42.9204 33.4417 42.9294 33.2592 42.7739L32.9032 42.4481C32.8135 42.3584 32.7447 42.3704 32.5742 42.4929C32.5365 42.5244 32.4887 42.5413 32.4396 42.5408C32.302 42.5408 32.2123 42.3823 32.3828 42.2209L33.2532 41.4407C33.4237 41.2823 33.4925 41.2942 33.663 41.4407L34.2164 41.916H36.8456L37.4439 41.363C37.5059 41.2955 37.5917 41.2548 37.6832 41.2494C37.7817 41.2605 37.8734 41.3048 37.9434 41.3749L38.3053 41.6559C38.4639 41.7815 38.5536 41.8024 38.748 41.6559C38.7902 41.623 38.8412 41.6033 38.8946 41.5991C39.0651 41.5991 39.1668 41.8024 38.9634 41.9608L38.419 42.3913C38.3151 43.6089 37.9726 44.7943 37.411 45.8798L37.7849 45.823C38.2276 45.7543 38.419 45.8679 38.6463 46.3551C39.0409 47.1862 39.4989 47.9857 40.0163 48.7466C40.1629 48.9588 40.2765 48.9588 40.5248 48.9259C40.7043 48.908 40.806 48.9977 40.806 49.0993Z" fill="#582C15"/>
<path d="M47.2963 42.1491C47.3621 42.2269 47.3532 42.3195 47.2395 42.4092L46.7729 42.762C46.7519 44.2895 46.5695 45.4314 46.1507 46.4059C45.677 47.4664 44.8748 48.3467 43.8624 48.9169C43.7936 48.9671 43.7112 48.9952 43.6261 48.9976C43.5812 48.9951 43.5375 48.9825 43.4981 48.9608C43.4588 48.9391 43.4248 48.9087 43.3988 48.8721C43.3072 48.7647 43.2071 48.6647 43.0997 48.5732C43.0681 48.5458 43.0278 48.5308 42.986 48.5308C42.9443 48.5308 42.9039 48.5458 42.8724 48.5732C42.8216 48.5998 42.7726 48.6297 42.7258 48.6628C42.6869 48.6874 42.6399 48.6955 42.595 48.6854C42.5501 48.6753 42.5111 48.6479 42.4865 48.609C42.4624 48.5797 42.4506 48.5422 42.4536 48.5044C42.4542 48.4744 42.4616 48.4448 42.475 48.418C42.4885 48.3911 42.5077 48.3675 42.5314 48.349C42.7019 48.2115 43.007 47.9723 43.2702 47.781C43.3239 47.7363 43.3917 47.7118 43.4616 47.7118C43.5316 47.7118 43.5993 47.7363 43.6531 47.781C43.8233 47.9109 43.9824 48.0549 44.1287 48.2115C44.6579 47.6184 45.022 46.8968 45.1845 46.1189C45.3974 45.0641 45.5037 43.9905 45.5016 42.9144C45.4777 42.7111 45.3969 42.6872 45.1486 42.8457C45.1133 42.8784 45.0668 42.8966 45.0185 42.8966C44.9703 42.8966 44.9238 42.8784 44.8884 42.8457C44.8196 42.7769 44.8316 42.6633 44.9452 42.5856L45.8157 41.9399C45.9981 41.8024 46.0669 41.8024 46.2584 41.9399L46.5994 42.188C46.7699 42.3136 46.8596 42.2896 47.0301 42.188C47.1258 42.0924 47.2395 42.0804 47.2963 42.1491ZM52.3454 48.624C52.3462 48.6486 52.3421 48.6731 52.3334 48.696C52.3246 48.719 52.3113 48.74 52.2943 48.7578C52.2774 48.7757 52.257 48.7899 52.2344 48.7998C52.2119 48.8096 52.1876 48.8149 52.163 48.8153L51.0981 48.9289C50.4999 48.9857 50.3623 48.884 50.2277 48.4775C49.615 46.6322 49.1234 44.7489 48.756 42.8397C48.7112 42.5796 48.6095 42.5228 48.3373 42.5407H48.1997C48.1758 42.5445 48.1514 42.5434 48.128 42.5373C48.1045 42.5313 48.0826 42.5205 48.0635 42.5057C48.0445 42.4908 48.0287 42.4722 48.0171 42.451C48.0055 42.4298 47.9984 42.4064 47.9963 42.3823C47.9929 42.3361 48.0075 42.2904 48.037 42.2548C48.0666 42.2191 48.1088 42.1963 48.1548 42.191L49.2556 42.0654C49.6624 42.0206 49.8538 42.1222 49.9465 42.6872C50.2664 44.5752 50.7857 46.424 51.496 48.2025C51.6096 48.4626 51.7472 48.4626 51.8938 48.4506H52.1091C52.2886 48.4416 52.3454 48.5104 52.3454 48.624ZM50.2277 41.6171C50.2229 41.4144 50.2788 41.2149 50.388 41.0441C50.4973 40.8732 50.6551 40.7389 50.8412 40.6581C51.0273 40.5774 51.2332 40.5539 51.4327 40.5908C51.6322 40.6276 51.8162 40.723 51.9611 40.8649C52.106 41.0068 52.2054 41.1886 52.2464 41.3871C52.2873 41.5857 52.2682 41.792 52.1913 41.9796C52.1143 42.1672 51.9832 42.3276 51.8146 42.4404C51.646 42.5531 51.4476 42.613 51.2447 42.6125C51.1087 42.6286 50.9708 42.6142 50.841 42.5703C50.7113 42.5264 50.593 42.4541 50.4947 42.3588C50.3964 42.2634 50.3206 42.1474 50.2729 42.019C50.2252 41.8907 50.2066 41.7534 50.2187 41.6171H50.2277ZM50.8259 41.6171C50.8259 41.9788 50.9516 42.3195 51.2567 42.3195C51.5618 42.3195 51.6874 41.9788 51.6874 41.6171C51.6874 41.2553 51.5647 40.9146 51.2567 40.9146C50.9486 40.9146 50.805 41.2524 50.805 41.6171H50.8259Z" fill="#582C15"/>
<path d="M61.7497 41.4138C61.7522 41.4417 61.7481 41.4698 61.7377 41.4958C61.7274 41.5218 61.7111 41.545 61.6902 41.5636C61.6692 41.5822 61.6443 41.5956 61.6172 41.6028C61.5901 41.61 61.5618 41.6108 61.5344 41.6051L61.298 41.5722C61.1956 41.5473 61.088 41.5532 60.989 41.5894C60.8899 41.6256 60.8039 41.6904 60.7417 41.7755C60.0627 42.49 59.2461 43.2911 58.4863 44.0175L59.0307 44.3164C59.1564 44.3941 59.1893 44.4629 59.1893 44.702V48.8871C59.291 48.9319 59.3717 48.908 59.4884 48.8183C59.605 48.7286 59.7247 48.7406 59.7875 48.8183C59.8503 48.896 59.8324 49.0126 59.7097 49.1172L58.8363 49.7838C58.7583 49.8469 58.6638 49.8863 58.5641 49.8974C58.4585 49.8864 58.3591 49.8425 58.2799 49.7719L57.9808 49.5567C57.9555 49.5313 57.9255 49.5111 57.8924 49.4974C57.8593 49.4836 57.8238 49.4765 57.7879 49.4765C57.752 49.4765 57.7165 49.4836 57.6834 49.4974C57.6503 49.5111 57.6203 49.5313 57.595 49.5567C57.5767 49.5786 57.5539 49.5963 57.528 49.6084C57.5022 49.6205 57.474 49.6268 57.4454 49.6268C57.4169 49.6268 57.3886 49.6205 57.3628 49.6084C57.3369 49.5963 57.3141 49.5786 57.2958 49.5567C57.239 49.4879 57.2629 49.3653 57.3856 49.2577L57.9419 48.8273V44.5406C57.227 45.1983 56.581 45.7513 56.1861 46.0681C56.0601 46.203 55.8995 46.3007 55.7218 46.3507C55.5441 46.4008 55.356 46.4013 55.1781 46.3521L54.1132 46.1489C54.0665 46.1375 54.0256 46.1092 53.9985 46.0694C53.9715 46.0296 53.9601 45.9813 53.9667 45.9336C53.9699 45.9104 53.9778 45.8882 53.9899 45.8681C54.002 45.8481 54.018 45.8307 54.037 45.817C54.0561 45.8033 54.0776 45.7936 54.1005 45.7885C54.1234 45.7833 54.147 45.7829 54.1701 45.7872L54.3615 45.82C54.4667 45.8419 54.5755 45.839 54.6794 45.8115C54.7832 45.784 54.8792 45.7327 54.9597 45.6616C56.216 44.7648 58.265 42.7171 59.5691 41.2912C59.6323 41.203 59.7159 41.1314 59.8128 41.0825C59.9097 41.0336 60.017 41.0088 60.1255 41.0103C60.2349 41.013 60.3439 41.024 60.4515 41.0431L61.5613 41.2464C61.7168 41.2673 61.7497 41.3451 61.7497 41.4138Z" fill="#582C15"/>
<path d="M73.2841 49.0993C73.2841 49.177 73.2063 49.2577 73.0568 49.2817L71.971 49.4281C71.63 49.473 71.5283 49.4281 71.3727 49.177C70.8695 48.3534 70.4093 47.5043 69.9938 46.6331C69.8921 46.4269 69.7994 46.3342 69.6767 46.3133C68.7794 47.7511 67.4782 48.7705 65.8809 49.5507C65.7843 49.6081 65.6759 49.6429 65.5639 49.6523C65.5206 49.6514 65.4782 49.6397 65.4406 49.6183C65.403 49.5969 65.3714 49.5665 65.3485 49.5298C65.259 49.3792 65.1447 49.2448 65.0105 49.1322C64.8849 49.0664 64.7832 49.0993 64.6246 49.189C64.5834 49.2149 64.5339 49.2247 64.4859 49.2165C64.4379 49.2082 64.3946 49.1824 64.3644 49.1441C64.3315 49.1129 64.3121 49.0699 64.3105 49.0246C64.315 48.992 64.3263 48.9607 64.3439 48.9328C64.3614 48.905 64.3847 48.8812 64.4122 48.8632C64.5588 48.7525 65.0105 48.4566 65.2827 48.2862C65.3419 48.2478 65.411 48.2273 65.4816 48.2273C65.5522 48.2273 65.6213 48.2478 65.6805 48.2862C65.8585 48.4368 66.0218 48.604 66.1681 48.7854C67.9329 47.778 69.3507 45.5151 69.4584 42.3106H66.7035L66.1382 42.7979C65.9916 42.9234 65.9228 42.9324 65.7403 42.7769L65.4023 42.478C65.3126 42.3883 65.2438 42.4003 65.0733 42.5228C65.0356 42.5543 64.9878 42.5713 64.9387 42.5707C64.8011 42.5707 64.7114 42.4122 64.8819 42.2508L65.7523 41.4706C65.9228 41.3122 65.9916 41.3241 66.1621 41.4706L66.7155 41.9459H69.3447L69.943 41.3929C70.0049 41.3254 70.0908 41.2847 70.1823 41.2793C70.2809 41.2897 70.3729 41.3341 70.4425 41.4048L70.8044 41.6858C70.963 41.8114 71.0527 41.8323 71.2471 41.6858C71.2893 41.6529 71.3403 41.6332 71.3937 41.629C71.5642 41.629 71.6659 41.8323 71.4625 41.9908L70.9181 42.4212C70.8156 43.6391 70.473 44.8247 69.9101 45.9097L70.2839 45.8529C70.7266 45.7842 70.9181 45.8978 71.1454 46.385C71.54 47.2161 71.998 48.0156 72.5154 48.7765C72.6619 48.9887 72.7756 48.9887 73.0239 48.9558C73.1944 48.908 73.2841 48.9977 73.2841 49.0993Z" fill="#582C15"/>
<path d="M80.9177 45.261L80.0443 45.9067C80.0219 45.9307 79.9948 45.9498 79.9647 45.9629C79.9346 45.9759 79.9022 45.9827 79.8693 45.9827C79.8365 45.9827 79.804 45.9759 79.7739 45.9629C79.7438 45.9498 79.7167 45.9307 79.6943 45.9067L79.1619 45.524H75.5366C75.3532 45.5096 75.1693 45.5447 75.0042 45.6257C74.9795 45.6403 74.9514 45.6482 74.9227 45.6486C74.894 45.649 74.8657 45.6419 74.8406 45.628C74.8155 45.6141 74.7945 45.5939 74.7796 45.5694C74.7648 45.5448 74.7566 45.5168 74.7559 45.4882C74.7553 45.4562 74.7634 45.4246 74.7791 45.3967C74.7949 45.3689 74.8179 45.3457 74.8456 45.3297L75.39 44.9561C75.416 44.9306 75.4471 44.9108 75.4813 44.8981C75.5155 44.8854 75.5519 44.88 75.5883 44.8823C75.6246 44.8845 75.6601 44.8944 75.6925 44.9112C75.7248 44.928 75.7532 44.9515 75.7759 44.98L76.0002 45.1833H77.9385C78.2274 44.5284 78.4469 43.8451 78.5936 43.1446L78.4709 42.9861C78.3902 42.8845 78.4261 42.8187 78.5607 42.7619L79.0123 42.5676C79.1739 42.5019 79.2277 42.5019 79.3773 42.6483L79.5926 42.8755C79.6704 42.9652 79.7033 42.9861 79.8918 42.9293C79.9146 42.9219 79.9388 42.9203 79.9625 42.9244C79.9861 42.9286 80.0083 42.9385 80.0272 42.9532C80.0461 42.968 80.0611 42.9872 80.0709 43.009C80.0806 43.0309 80.0849 43.0549 80.0832 43.0788C80.0848 43.1123 80.0746 43.1453 80.0544 43.172C80.0341 43.1988 80.0052 43.2176 79.9725 43.2253L79.6076 43.3389C79.4211 43.838 79.1899 44.3192 78.9166 44.7767C78.8862 44.8362 78.844 44.8888 78.7925 44.9314C78.7411 44.9741 78.6816 45.0059 78.6175 45.0248L78.0522 45.1833H79.1619L79.6824 44.696C79.7032 44.6676 79.7305 44.6445 79.7619 44.6286C79.7933 44.6126 79.8281 44.6043 79.8633 44.6043C79.8986 44.6043 79.9334 44.6126 79.9648 44.6286C79.9962 44.6445 80.0235 44.6676 80.0443 44.696L80.3853 44.9949C80.5199 45.1055 80.5558 45.1055 80.7353 44.9949C80.9147 44.8843 81.1421 45.0906 80.9177 45.261ZM74.9025 42.1252L75.4229 41.7755C75.5815 41.6619 75.6503 41.6619 75.7849 41.7755L76.0002 41.9668H79.0811L79.5926 41.5154C79.7153 41.4018 79.808 41.4018 79.9546 41.5154L80.2537 41.7635C80.4003 41.8771 80.4481 41.8771 80.6276 41.7635C80.6453 41.7491 80.6659 41.7386 80.688 41.7326C80.71 41.7266 80.7331 41.7253 80.7557 41.7287C80.7783 41.7321 80.7999 41.7402 80.8192 41.7524C80.8385 41.7647 80.855 41.7808 80.8678 41.7997C80.8805 41.8187 80.8891 41.8401 80.8931 41.8626C80.8971 41.8851 80.8964 41.9082 80.8909 41.9303C80.8855 41.9525 80.8755 41.9733 80.8616 41.9915C80.8477 42.0096 80.8301 42.0246 80.8101 42.0355L79.9486 42.6334C79.823 42.7231 79.7572 42.7231 79.6076 42.6334L79.0871 42.3165H75.6054C75.422 42.3021 75.2381 42.3372 75.073 42.4182C74.8696 42.4989 74.711 42.2747 74.9025 42.1252ZM80.3943 46.7676C80.393 46.7976 80.3842 46.8269 80.3685 46.8525C80.3528 46.8781 80.3307 46.8993 80.3045 46.9141L79.8289 47.213V48.9797C79.8289 49.3414 79.6943 49.6941 78.9914 49.8615C78.1847 50.0321 77.3513 50.0321 76.5446 49.8615C75.8985 49.6822 75.7071 49.3414 75.7071 48.9797V47.1861C75.7071 47.1173 75.6383 47.0725 75.5246 47.1532C75.4981 47.1718 75.4672 47.1832 75.4349 47.1861C75.3966 47.1928 75.3573 47.185 75.3245 47.1642C75.2917 47.1433 75.2679 47.111 75.2578 47.0735C75.2477 47.036 75.252 46.9961 75.2698 46.9617C75.2876 46.9272 75.3177 46.9006 75.3541 46.8872L76.069 46.3431C76.0971 46.3123 76.1312 46.2877 76.1693 46.2708C76.2075 46.254 76.2487 46.2452 76.2904 46.2452C76.332 46.2452 76.3733 46.254 76.4114 46.2708C76.4495 46.2877 76.4837 46.3123 76.5117 46.3431L76.8946 46.642H78.6684L79.0423 46.3252C79.2008 46.1996 79.2786 46.1907 79.4491 46.3252L79.8589 46.6241C79.9606 46.7048 80.0144 46.6929 80.158 46.6241C80.1809 46.6027 80.2101 46.5894 80.2413 46.5862C80.2724 46.583 80.3038 46.5901 80.3306 46.6063C80.3573 46.6226 80.3781 46.6471 80.3896 46.6763C80.4011 46.7054 80.4027 46.7374 80.3943 46.7676ZM77.418 44.7409L76.5446 44.8993C76.3622 44.9352 76.2963 44.8664 76.2455 44.6392C76.1199 44.152 75.9972 43.6318 75.9165 43.2582C75.8836 43.0997 75.8148 43.0878 75.6173 43.1236C75.5972 43.1255 75.577 43.1229 75.558 43.116C75.539 43.1091 75.5218 43.0982 75.5075 43.0839C75.4932 43.0697 75.4823 43.0524 75.4754 43.0335C75.4686 43.0145 75.466 42.9943 75.4678 42.9742C75.467 42.9555 75.4699 42.9368 75.4765 42.9193C75.483 42.9017 75.4929 42.8856 75.5058 42.872C75.5186 42.8584 75.534 42.8474 75.5511 42.8398C75.5682 42.8322 75.5867 42.8281 75.6054 42.8277L76.3412 42.7141C76.5566 42.6812 76.7031 42.738 76.748 42.9293C76.8497 43.3927 76.9754 43.8799 77.101 44.2895C77.1578 44.4569 77.1907 44.4808 77.3822 44.4569C77.4015 44.453 77.4214 44.4532 77.4407 44.4573C77.46 44.4615 77.4782 44.4696 77.4942 44.4811C77.5102 44.4926 77.5236 44.5073 77.5337 44.5243C77.5438 44.5412 77.5502 44.56 77.5527 44.5796C77.5552 44.5991 77.5536 44.619 77.5481 44.6379C77.5425 44.6568 77.5331 44.6744 77.5205 44.6895C77.5079 44.7046 77.4923 44.717 77.4746 44.7258C77.457 44.7347 77.4377 44.7398 77.418 44.7409ZM76.4549 41.0281L77.3522 40.3496C77.4076 40.297 77.4795 40.2653 77.5556 40.2599C77.624 40.2682 77.6874 40.2999 77.7351 40.3496C77.8607 40.4751 77.9864 40.6216 78.1 40.7561C78.2137 40.8906 78.2586 40.8577 78.4949 40.6903C78.5212 40.6685 78.553 40.6544 78.5869 40.6498C78.6208 40.6452 78.6553 40.6502 78.6865 40.6642C78.7177 40.6782 78.7443 40.7007 78.7633 40.7291C78.7823 40.7575 78.7929 40.7907 78.794 40.8249C78.7898 40.8575 78.7782 40.8888 78.7601 40.9162C78.7419 40.9437 78.7177 40.9667 78.6893 40.9833L77.7381 41.6619C77.5706 41.7874 77.439 41.7755 77.3433 41.6619C77.2475 41.5483 77.1399 41.4257 77.0142 41.2882C76.8886 41.1507 76.8318 41.1776 76.6403 41.3121C76.4489 41.4466 76.2395 41.1866 76.4549 41.0281ZM78.7431 48.896V46.9948H76.8168V48.9169C76.8168 49.3832 76.9305 49.5297 77.2236 49.5865C77.5697 49.6479 77.9246 49.6398 78.2675 49.5626C78.4168 49.5328 78.5491 49.4473 78.6374 49.3234C78.7258 49.1996 78.7636 49.0467 78.7431 48.896ZM85.2759 41.0281C85.2768 41.0633 85.2678 41.0979 85.2498 41.1281C85.2318 41.1582 85.2056 41.1827 85.1742 41.1985L84.6777 41.5274C84.3703 42.4372 83.9693 43.3128 83.4812 44.14C84.6238 44.98 85.1891 45.8618 85.1891 46.7676C85.1891 47.8437 84.8392 48.4087 84.1482 48.8272C83.758 49.0502 83.3175 49.1705 82.868 49.177C82.5868 49.177 82.5061 49.0753 82.4941 48.896C82.4884 48.7658 82.4694 48.6366 82.4373 48.5104C82.4044 48.3848 82.3236 48.3519 82.189 48.34V50.0379C82.189 50.298 82.1441 50.3787 81.9407 50.4474L81.4173 50.6059C81.3633 50.6248 81.3069 50.6358 81.2498 50.6387C81.2245 50.6407 81.1991 50.637 81.1755 50.628C81.1518 50.619 81.1305 50.6048 81.113 50.5864C81.0955 50.5681 81.0824 50.5461 81.0745 50.5221C81.0666 50.498 81.0641 50.4725 81.0673 50.4474V41.4795C81.0673 41.342 80.9776 41.3091 80.7682 41.4108C80.7451 41.4241 80.7188 41.4311 80.6921 41.4308C80.6654 41.4306 80.6393 41.4233 80.6164 41.4095C80.5935 41.3958 80.5747 41.3762 80.5619 41.3528C80.5492 41.3293 80.5429 41.3029 80.5438 41.2763C80.5436 41.2485 80.5507 41.2213 80.5644 41.1971C80.578 41.173 80.5977 41.1529 80.6216 41.1387L81.2916 40.6425C81.3443 40.5844 81.4178 40.5494 81.4961 40.5449C81.5744 40.5404 81.6514 40.5669 81.7104 40.6186L82.2877 41.0252H83.4842L83.8581 40.6306C84.0286 40.4482 84.1303 40.4482 84.3247 40.6306L84.5939 40.8787C84.7644 41.0281 84.8093 41.0281 85.0157 40.9145C85.0395 40.9001 85.0664 40.8915 85.0942 40.8897C85.122 40.8878 85.1498 40.8926 85.1753 40.9038C85.2008 40.9149 85.2233 40.932 85.2408 40.9537C85.2583 40.9753 85.2704 41.0009 85.2759 41.0281ZM82.7753 44.152C83.1229 43.2487 83.3765 42.3121 83.532 41.357H82.174V47.9783H82.9218C83.194 47.9783 83.2628 48.0799 83.3167 48.2622C83.3595 48.3948 83.3905 48.5308 83.4094 48.6688C83.7713 48.5432 84.0316 47.9663 84.0076 46.7347C83.9777 46.2902 83.8582 45.8564 83.6562 45.4593C83.4541 45.0622 83.1738 44.71 82.8321 44.424C82.7394 44.3343 82.7184 44.2984 82.7753 44.152Z" fill="#582C15"/>
<path d="M85.8598 37.9103H6.13867V38.3049H85.8598V37.9103Z" fill="#582C15"/>
<path d="M85.8598 52.4084H6.13867V52.803H85.8598V52.4084Z" fill="#582C15"/>
<path d="M85.8598 53.652H6.13867V53.8493H85.8598V53.652Z" fill="#582C15"/>
<path d="M85.8598 36.9119H6.13867V37.1092H85.8598V36.9119Z" fill="#582C15"/>
<path d="M62.2402 28.4791C60.4843 28.6973 57.879 30.6344 57.3376 31.0349C56.7962 31.4355 56.2129 31.2233 55.6267 31.1426C54.6515 31.011 52.5936 31.6776 51.8577 32.5535C51.2326 33.2949 51.1129 34.3291 52.8329 34.9928C54.158 35.2917 56.3924 34.6281 57.1731 32.7149C57.9358 30.8496 61.8872 30.5387 62.8384 30.4042C64.2233 30.2069 64.011 28.2639 62.2402 28.4791Z" fill="#582C15"/>
<path d="M48.521 16.0777L46.002 13.5602L43.4829 16.0777L46.002 18.5952L48.521 16.0777Z" fill="#582C15"/>
<path d="M48.5191 21.1161L46 18.5986L43.4809 21.1161L46 23.6336L48.5191 21.1161Z" fill="#582C15"/>
<path d="M43.48 21.1147L40.9609 18.5972L38.4419 21.1146L40.9609 23.6321L43.48 21.1147Z" fill="#582C15"/>
<path d="M53.5601 21.1145L51.041 18.597L48.5219 21.1145L51.041 23.632L53.5601 21.1145Z" fill="#582C15"/>
<path d="M48.521 26.1515L46.002 23.634L43.4829 26.1515L46.002 28.669L48.521 26.1515Z" fill="#582C15"/>
<path d="M43.48 26.1501L40.9609 23.6326L38.4419 26.1501L40.9609 28.6675L43.48 26.1501Z" fill="#582C15"/>
<path d="M38.4409 26.1516L35.9219 23.6342L33.4028 26.1516L35.9219 28.6691L38.4409 26.1516Z" fill="#582C15"/>
<path d="M53.5601 26.1529L51.041 23.6354L48.5219 26.1529L51.041 28.6704L53.5601 26.1529Z" fill="#582C15"/>
<path d="M58.6011 26.1513L56.082 23.6339L53.563 26.1513L56.082 28.6688L58.6011 26.1513Z" fill="#582C15"/>
</svg>
