<svg width="139" height="40" viewBox="0 0 139 40" fill="none" xmlns="http://www.w3.org/2000/svg">
<path d="M63.7927 19.479H56.0652V23.0528C56.0475 23.8166 56.0785 24.5808 56.1578 25.3407C56.1725 25.4978 56.219 25.6502 56.2947 25.7887C56.3703 25.9271 56.4735 26.0486 56.5977 26.1458C57.0133 26.3593 57.4812 26.4498 57.9464 26.4064H58.3284V26.9103H51.6718V26.4122H52.0538C52.5057 26.4502 52.9594 26.3661 53.3678 26.1689C53.4923 26.0825 53.598 25.9717 53.6786 25.8433C53.7592 25.7149 53.8129 25.5715 53.8367 25.4218C53.9304 24.6358 53.9652 23.8439 53.9408 23.0528V15.7952C53.9604 15.0328 53.9236 14.27 53.8309 13.5131C53.8132 13.3703 53.7653 13.2329 53.6905 13.1101C53.6156 12.9872 53.5155 12.8818 53.3967 12.8006C52.9294 12.6348 52.4323 12.5697 51.9381 12.6095H51.666V12.1056H58.3226V12.6095H58.0506C57.5706 12.5723 57.0881 12.6334 56.6324 12.7891C56.5126 12.8612 56.4101 12.9587 56.3321 13.0748C56.2541 13.1909 56.2025 13.3227 56.1809 13.4609C56.0785 14.2287 56.0398 15.0037 56.0652 15.7778V18.7144H63.7927V15.7894C63.813 15.0272 63.7782 14.2645 63.6885 13.5073C63.6729 13.3646 63.6266 13.2269 63.5526 13.1039C63.4787 12.9809 63.3789 12.8754 63.2601 12.7949C62.7942 12.6232 62.2962 12.5559 61.8015 12.5979H61.4194V12.0998H68.1571V12.5979H67.9371C67.4529 12.561 66.9662 12.6241 66.5074 12.7833C66.3871 12.8547 66.2841 12.9521 66.206 13.0683C66.1279 13.1845 66.0767 13.3167 66.0559 13.4552C65.953 14.2229 65.9143 14.9979 65.9401 15.772V23.0528C65.9204 23.8261 65.9494 24.5999 66.027 25.3696C66.0424 25.5257 66.0893 25.6771 66.165 25.8145C66.2406 25.9518 66.3433 26.0724 66.4669 26.1689C66.8829 26.3874 67.3541 26.4781 67.8214 26.4296H68.1629V26.9335H61.4194V26.4296H61.9346C62.382 26.4656 62.831 26.3837 63.237 26.1921C63.362 26.1055 63.4677 25.9938 63.5474 25.8642C63.6271 25.7346 63.6791 25.5899 63.7 25.4391C63.7878 24.6547 63.8207 23.865 63.7984 23.0759L63.7927 19.479Z" fill="#070102"/>
<path d="M74.1553 17.6024V23.8405C74.1553 24.7962 74.1553 25.3928 74.1958 25.6419C74.203 25.7559 74.2352 25.867 74.2903 25.9671C74.3453 26.0672 74.4217 26.1539 74.5141 26.2211C74.8123 26.38 75.1502 26.4484 75.4866 26.418H75.7181V26.9219H70.9022V26.418H71.2611C71.6128 26.4609 71.9685 26.3811 72.2683 26.1921C72.4209 26.0529 72.5193 25.8641 72.5461 25.6592C72.5693 25.4507 72.5808 24.8483 72.5808 23.8521V21.1298C72.6209 20.4852 72.5722 19.8381 72.4361 19.2068C72.4044 19.1109 72.353 19.0227 72.2852 18.9479C72.2174 18.8731 72.1348 18.8133 72.0425 18.7724C71.7629 18.7008 71.4741 18.6715 71.1858 18.6855H70.8906V18.1816C71.9146 18.1034 72.9263 17.9091 73.9064 17.6024H74.1553ZM72.0483 13.0323C72.0461 12.8823 72.0748 12.7334 72.1326 12.5949C72.1903 12.4564 72.2759 12.3312 72.384 12.2272C72.4855 12.1175 72.6093 12.0307 72.7471 11.9728C72.8849 11.9148 73.0334 11.887 73.1828 11.8913C73.332 11.8885 73.4801 11.917 73.6177 11.9748C73.7552 12.0327 73.8792 12.1186 73.9816 12.2272C74.1955 12.444 74.3154 12.7364 74.3154 13.041C74.3154 13.3457 74.1955 13.638 73.9816 13.8548C73.8801 13.9646 73.7563 14.0514 73.6186 14.1093C73.4808 14.1673 73.3322 14.195 73.1828 14.1908C73.0336 14.1936 72.8855 14.1651 72.7479 14.1073C72.6104 14.0494 72.4864 13.9634 72.384 13.8548C72.2693 13.7507 72.1776 13.6238 72.1148 13.4821C72.052 13.3405 72.0195 13.1873 72.0194 13.0323H72.0483Z" fill="#070102"/>
<path d="M81.1423 19.8844C81.3835 19.2399 81.8006 18.676 82.3462 18.2568C82.8051 17.8554 83.387 17.6225 83.9959 17.5965C84.2102 17.5823 84.425 17.6154 84.625 17.6935C84.8251 17.7716 85.0055 17.8927 85.1536 18.0483C85.4062 18.2875 85.5557 18.6158 85.5704 18.9635C85.5728 19.064 85.5551 19.1639 85.5183 19.2574C85.4815 19.3509 85.4264 19.4361 85.3562 19.508C85.2928 19.5823 85.2137 19.6417 85.1246 19.6817C85.0356 19.7218 84.9387 19.7416 84.841 19.7396C84.4764 19.7396 84.1985 19.4732 84.0075 18.9345C83.8802 18.5696 83.6834 18.3843 83.4287 18.3843C82.9712 18.4414 82.5529 18.6714 82.2594 19.0272C81.865 19.3853 81.5749 19.8437 81.4201 20.3536C81.2805 20.9729 81.2183 21.6072 81.2349 22.2418V23.8405C81.2349 24.7904 81.2349 25.3928 81.2754 25.6418C81.2794 25.756 81.3097 25.8676 81.3639 25.9681C81.4181 26.0685 81.4948 26.1551 81.588 26.2211C81.8861 26.3799 82.224 26.4484 82.5604 26.418H82.8383V26.9219H78.0918V26.418H78.3233C78.6445 26.4435 78.9665 26.3814 79.2553 26.2384C79.3441 26.1827 79.4197 26.1083 79.4767 26.0202C79.5337 25.9321 79.5707 25.8326 79.5852 25.7287C79.641 25.1048 79.6604 24.4782 79.6431 23.8521V21.3151C79.6431 20.3536 79.6315 19.7512 79.6083 19.508C79.6007 19.3946 79.5688 19.2843 79.5149 19.1844C79.461 19.0845 79.3863 18.9973 79.2958 18.9287C78.9983 18.7679 78.6603 18.6974 78.3233 18.726H78.0918V18.2453C79.0044 18.1115 79.9033 17.8963 80.7776 17.6023C81.0217 18.3383 81.1448 19.109 81.1423 19.8844Z" fill="#070102"/>
<path d="M87.1204 22.4157C87.1012 21.7797 87.212 21.1466 87.4459 20.555C87.6798 19.9634 88.0319 19.4258 88.4807 18.9751C89.3861 18.0882 90.6027 17.5916 91.8698 17.5916C93.1368 17.5916 94.3534 18.0882 95.2589 18.9751C95.7112 19.4222 96.0676 19.9568 96.3065 20.5464C96.5454 21.136 96.6616 21.7681 96.6481 22.4041C96.6853 23.0614 96.5811 23.7191 96.3424 24.3326C96.1038 24.9462 95.7362 25.5013 95.2647 25.9605C94.3426 26.8009 93.1402 27.2668 91.8929 27.2668C90.6457 27.2668 89.4433 26.8009 88.5212 25.9605C88.0499 25.5028 87.6812 24.95 87.4397 24.3389C87.1982 23.7277 87.0893 23.0721 87.1204 22.4157ZM88.9322 22.462C88.9322 24.0491 89.1946 25.1612 89.7194 25.7983C89.9974 26.0989 90.3345 26.3387 90.7095 26.5027C91.0846 26.6667 91.4894 26.7514 91.8987 26.7514C92.308 26.7514 92.7129 26.6667 93.0879 26.5027C93.4629 26.3387 93.8 26.0989 94.078 25.7983C94.5816 25.1612 94.8305 24.0606 94.8248 22.4562C94.819 20.8518 94.5643 19.7629 94.0607 19.0968C93.789 18.7818 93.4527 18.5291 93.0746 18.3559C92.6965 18.1827 92.2856 18.093 91.8698 18.093C91.454 18.093 91.043 18.1827 90.665 18.3559C90.2869 18.5291 89.9506 18.7818 89.6789 19.0968C89.1734 19.7609 88.9245 20.8827 88.9322 22.462Z" fill="#070102"/>
<path d="M101.36 19.4327C101.742 18.8711 102.244 18.402 102.83 18.0599C103.373 17.7508 103.989 17.591 104.613 17.5965C105.254 17.576 105.888 17.7366 106.442 18.0599C106.886 18.3203 107.22 18.7314 107.386 19.2183C107.561 19.9303 107.635 20.6635 107.606 21.3962V23.8694C107.589 24.5073 107.61 25.1455 107.669 25.7809C107.684 25.8862 107.724 25.9865 107.785 26.0732C107.846 26.1599 107.928 26.2305 108.023 26.279C108.37 26.4083 108.741 26.4617 109.111 26.4354V26.9393H104.48V26.4412H104.683C105.044 26.4873 105.411 26.4053 105.719 26.2095C105.869 26.067 105.965 25.8765 105.991 25.6708C105.991 25.4623 106.026 24.8657 106.031 23.8752V21.1529C106.048 20.5994 106.003 20.0458 105.898 19.5022C105.811 19.1407 105.592 18.8247 105.285 18.616C104.927 18.3741 104.501 18.2524 104.069 18.2684C103.518 18.2587 102.978 18.4318 102.535 18.7608C102.031 19.166 101.629 19.6838 101.36 20.2725V23.8521C101.346 24.4723 101.364 25.0929 101.412 25.7113C101.423 25.8187 101.458 25.9221 101.516 26.0135C101.573 26.1049 101.65 26.1819 101.742 26.2384C102.067 26.3855 102.423 26.4492 102.778 26.4238V26.9219H98.2402V26.418H98.466C98.8224 26.4602 99.1828 26.3828 99.4905 26.1979C99.643 26.0569 99.7396 25.8657 99.7626 25.6592C99.7626 25.4507 99.8031 24.8483 99.8031 23.8521V14.9206C99.8664 14.3286 99.7768 13.7302 99.5426 13.1829C99.3748 12.9396 98.9638 12.8238 98.3155 12.8238V12.3199C99.2757 12.3488 100.233 12.1935 101.134 11.8623H101.36V19.4327Z" fill="#070102"/>
<path d="M123.888 17.6023H123.998C124.232 18.1995 124.34 18.8382 124.317 19.479C124.742 18.9086 125.277 18.4299 125.891 18.0715C126.447 17.7621 127.073 17.6005 127.709 17.6023C128.345 17.5733 128.975 17.7499 129.503 18.1063C129.989 18.4813 130.328 19.0138 130.464 19.6122C130.934 19.0095 131.511 18.499 132.166 18.1063C132.703 17.7832 133.316 17.6093 133.943 17.6023C134.557 17.5851 135.162 17.7525 135.679 18.0831C136.097 18.3232 136.409 18.712 136.553 19.172C136.676 19.8247 136.727 20.4891 136.704 21.1529V23.8405C136.687 24.4745 136.709 25.1089 136.768 25.7403C136.783 25.8453 136.823 25.9452 136.883 26.0326C136.943 26.1199 137.022 26.1923 137.115 26.2442C137.457 26.38 137.825 26.4355 138.191 26.4064V26.9103H133.775V26.4064C134.114 26.4298 134.455 26.3764 134.771 26.25C134.862 26.2018 134.941 26.1335 135.002 26.0502C135.063 25.967 135.105 25.8709 135.124 25.7693C135.19 25.1286 135.213 24.4842 135.193 23.8405V20.8517C135.205 20.3937 135.17 19.9356 135.089 19.4848C135.01 19.1643 134.817 18.8839 134.545 18.6971C134.205 18.4635 133.798 18.3495 133.387 18.3727C132.875 18.3842 132.378 18.5519 131.963 18.8534C131.406 19.2539 130.921 19.7454 130.528 20.3073V23.8347C130.528 24.7904 130.528 25.387 130.568 25.6303C130.573 25.7435 130.603 25.8543 130.656 25.9544C130.709 26.0546 130.784 26.1417 130.875 26.2095C131.165 26.3723 131.499 26.443 131.83 26.4122V26.9161H127.506V26.4122C127.853 26.435 128.2 26.3837 128.525 26.2616C128.616 26.2152 128.695 26.149 128.758 26.0678C128.82 25.9866 128.863 25.8925 128.884 25.7924C128.954 25.1462 128.979 24.496 128.959 23.8463V21.3614C128.972 20.7807 128.941 20.1999 128.866 19.6238C128.794 19.2589 128.587 18.9345 128.288 18.7144C127.957 18.4591 127.548 18.3261 127.13 18.3379C126.637 18.3501 126.158 18.5006 125.746 18.7723C125.202 19.133 124.718 19.5767 124.311 20.0872V23.8115C124.311 24.7962 124.311 25.4044 124.357 25.6476C124.366 25.7573 124.399 25.8635 124.455 25.9579C124.512 26.0524 124.589 26.1325 124.681 26.1921C124.999 26.3417 125.35 26.4056 125.7 26.3775V26.8814H121.318V26.3775C121.663 26.4017 122.01 26.3483 122.331 26.2211C122.422 26.1731 122.5 26.1056 122.561 26.0234C122.623 25.9413 122.665 25.8465 122.684 25.7461C122.748 25.1033 122.769 24.4571 122.748 23.8115V21.1645C122.748 20.1451 122.748 19.5195 122.702 19.2879C122.689 19.1812 122.651 19.0791 122.592 18.9896C122.533 18.9001 122.453 18.8257 122.36 18.7723C122.032 18.6299 121.675 18.5703 121.318 18.5986V18.0947C122.19 18.0242 123.052 17.8591 123.888 17.6023Z" fill="#070102"/>
<path d="M110.402 22.4157C110.385 21.7785 110.498 21.1446 110.735 20.5529C110.972 19.9613 111.327 19.4243 111.779 18.9751C112.685 18.0882 113.901 17.5916 115.168 17.5916C116.435 17.5916 117.652 18.0882 118.558 18.9751C119.01 19.4222 119.366 19.9568 119.605 20.5464C119.844 21.136 119.96 21.7681 119.947 22.4041C119.984 23.0614 119.88 23.7191 119.641 24.3326C119.402 24.9462 119.035 25.5013 118.563 25.9605C117.645 26.8075 116.431 27.2608 115.183 27.2232C114.562 27.2385 113.945 27.1312 113.366 26.9076C112.787 26.684 112.258 26.3484 111.808 25.9199C111.341 25.4674 110.974 24.9214 110.732 24.3177C110.49 23.7139 110.377 23.0659 110.402 22.4157ZM112.219 22.462C112.219 24.0491 112.482 25.1612 113.007 25.7983C113.285 26.0989 113.622 26.3387 113.997 26.5027C114.372 26.6667 114.777 26.7514 115.186 26.7514C115.595 26.7514 116 26.6667 116.375 26.5027C116.75 26.3387 117.087 26.0989 117.365 25.7983C117.869 25.1612 118.118 24.0606 118.112 22.4562C118.106 20.8518 117.851 19.7629 117.348 19.0968C117.075 18.7779 116.736 18.5223 116.354 18.3475C115.973 18.1728 115.558 18.0831 115.138 18.0848C114.719 18.0864 114.305 18.1794 113.925 18.3571C113.544 18.5348 113.207 18.7932 112.937 19.1141C112.451 19.7667 112.212 20.8827 112.219 22.462Z" fill="#070102"/>
<path d="M13.0265 10.5185L0.0664062 10.5706L0.0843676 15.0479L13.0444 14.9958L13.0265 10.5185Z" fill="#070102"/>
<path d="M43.7999 25.6918L30.8398 25.7439L30.8578 30.2212L43.8179 30.1691L43.7999 25.6918Z" fill="#070102"/>
<path d="M19.0495 17.5502H0V22.0276H19.0495V17.5502Z" fill="#070102"/>
<path d="M4.98352 19.815C4.93143 19.5312 4.86197 19.5775 4.79251 19.7686C4.70983 20.058 4.64411 20.352 4.5957 20.6491C4.7462 20.8402 4.91406 21.0255 5.07035 21.2283C5.01825 20.7475 5.01247 20.2726 4.98352 19.815Z" fill="#070102"/>
<path d="M5.14648 22.9601C5.27383 23.2092 5.38381 23.4582 5.51694 23.6957C5.65007 23.9332 5.78321 24.1707 5.92213 24.4023L5.6848 23.8811C5.60377 23.7073 5.52273 23.5335 5.45327 23.354C5.45327 22.711 5.58061 22.7342 5.72532 22.9659C5.81116 23.1101 5.88474 23.2612 5.94528 23.4177C6.02632 23.5799 6.09578 23.742 6.14208 23.8521C6.05986 23.5359 5.94944 23.2276 5.81215 22.9311C5.72532 22.7748 5.64428 22.7516 5.57482 22.7748C5.50536 22.7979 5.30277 23.1049 5.14648 22.9601Z" fill="#070102"/>
<path d="M6.26795 25.8678C6.31398 26.04 6.38622 26.2041 6.48212 26.3543C6.5458 26.447 6.59789 26.476 6.63262 26.4644C6.66735 26.4528 6.73681 26.2385 6.70208 26.03C6.56316 26.0184 6.22165 25.445 6.26795 25.8678Z" fill="#070102"/>
<path d="M40.0039 8.89093C40.1139 9.18054 40.2702 9.47015 40.1718 9.47015C40.2991 9.58599 40.3802 9.66129 40.3744 9.58599C40.2865 9.337 40.1616 9.10269 40.0039 8.89093Z" fill="#070102"/>
<path d="M40.1718 9.49916L40.0039 9.34277C40.0427 9.39959 40.0853 9.45377 40.1312 9.50496C40.1312 9.50496 40.1602 9.49916 40.1718 9.49916Z" fill="#070102"/>
<path d="M37.1674 27.9935C37.0905 28.2069 37.0016 28.4158 36.9011 28.619C36.7969 28.7986 36.6927 28.955 36.5885 29.1114C36.4843 29.2678 36.3628 29.4126 36.247 29.569C36.1312 29.7253 36.0097 29.9049 35.8708 30.0903L35.2572 30.2408C34.962 30.6463 34.9446 30.7795 34.9504 30.8954C34.9562 31.0112 35.0025 31.1097 34.7999 31.434C34.6851 31.4999 34.5749 31.5735 34.47 31.6541L34.1053 31.9264C33.8622 32.1349 33.5901 32.3434 33.3412 32.5577L32.6351 33.1369C32.4267 33.2875 32.2588 33.4092 32.1662 33.4613C31.8189 33.4613 32.3572 33.0558 32.4209 32.8821C32.2369 33.0266 32.0664 33.1875 31.9115 33.3628C31.7842 33.496 31.68 33.6177 31.5758 33.7393C31.4555 33.8836 31.3174 34.0121 31.1648 34.1216C30.9314 34.2963 30.679 34.444 30.4123 34.5618L30.3487 34.4807C29.5489 34.9963 28.6874 35.4089 27.7844 35.7086C26.8023 36.0335 25.7868 36.2472 24.7571 36.3458C23.6943 36.4443 22.6247 36.4443 21.5619 36.3458C20.5142 36.2822 19.473 36.1369 18.4478 35.9114C18.7025 36.0214 18.6156 36.0678 18.6967 36.172C17.6049 35.8759 16.5445 35.4744 15.5304 34.973C14.4967 34.4605 13.509 33.8598 12.5784 33.1775C11.6853 32.515 10.8329 31.7993 10.0257 31.0344C9.25005 30.293 8.54965 29.5516 7.90136 28.8623L8.16183 29.2851L8.44546 29.7253L8.59017 29.9628L8.74646 30.1945L9.07061 30.6811C9.54821 31.3671 10.0703 32.0211 10.6335 32.6388C11.6757 33.8339 13.0071 34.7413 14.5001 35.2742C14.6901 35.4546 14.9021 35.6103 15.131 35.7376C15.3741 35.865 15.6288 35.9867 15.8719 36.0967C16.0959 36.1838 16.3143 36.2844 16.526 36.3979C16.6807 36.4665 16.8116 36.5793 16.9023 36.7223C17.1164 36.8092 17.3132 36.9076 17.5158 36.9771C17.7184 37.0466 17.9152 37.1161 18.0947 37.1741C18.2741 37.232 18.4709 37.2783 18.6735 37.3304C18.8761 37.3826 19.0324 37.4173 19.206 37.4463C19.8592 37.5671 20.5215 37.6311 21.1857 37.6374C21.504 37.6374 21.8166 37.6374 22.1407 37.6374H22.627C22.789 37.6374 22.9569 37.6374 23.1248 37.6374H23.6515L24.1956 37.5853C24.5719 37.5853 24.9713 37.51 25.3996 37.4752C25.8279 37.4405 25.6774 37.6896 25.8395 37.8459C24.9209 38.0209 23.99 38.1236 23.0553 38.1529C23.6318 38.2211 24.2114 38.2598 24.7918 38.2688C24.5571 38.3317 24.3166 38.3705 24.0741 38.3846L23.6399 38.4136H23.1942H22.7775H22.4186C22.2044 38.4136 22.0423 38.4773 21.9845 38.5584C23.4759 38.5038 24.9636 38.3723 26.4415 38.1645C27.8326 37.9632 29.1703 37.4888 30.3776 36.7686C30.1403 36.8439 29.8914 36.9366 29.6251 37.0177C29.3588 37.0988 29.0926 37.2088 28.8089 37.2899C28.5253 37.371 28.2301 37.4752 27.9465 37.539C27.6629 37.6027 27.3676 37.6896 27.0667 37.7301C26.7657 37.7706 26.4878 37.7301 26.1984 37.7301C25.909 37.7301 25.7411 37.6606 25.7585 37.5737C25.9611 37.51 26.1579 37.4579 26.3373 37.4057L26.9162 37.2262L27.1998 37.1451L27.4834 37.0524L28.0622 36.8729L28.6064 36.6817L28.8726 36.589L29.1389 36.4906L29.6714 36.2936L30.1924 36.0735L30.4528 35.9635L30.7075 35.8477L31.2227 35.6044L31.7321 35.3437L31.9868 35.2047L32.2357 35.0599L32.7393 34.7587L33.2371 34.4228C33.4049 34.3127 33.567 34.1911 33.7291 34.0637C33.8911 33.9362 34.059 33.8204 34.2095 33.6756C34.8636 33.1485 35.6971 32.3782 35.9171 32.4071C35.5582 32.8357 35.9634 32.6446 35.6855 33.0269C36.0734 32.5519 35.9865 32.4187 35.9634 32.2623C35.9498 32.1524 35.9765 32.0412 36.0386 31.9495C36.0922 31.8575 36.1563 31.7719 36.2296 31.6947C36.3165 31.5846 36.438 31.4688 36.5827 31.3124C36.6869 31.4977 36.7911 31.6947 36.8895 31.8916C36.8895 31.4109 37.2484 31.0402 37.6594 30.5942C38.133 30.1448 38.4854 29.5829 38.6839 28.9608C38.9039 28.8334 38.9444 28.9608 38.8518 29.2272C38.7954 29.3956 38.7237 29.5585 38.6376 29.7138C38.5287 29.9133 38.4089 30.1067 38.2787 30.293C38.4269 30.1257 38.5569 29.9432 38.6665 29.7485C38.7327 29.6079 38.7888 29.4627 38.8344 29.3141C38.9114 29.0012 39.0281 28.6995 39.1817 28.4163V28.9029V29.401C39.1965 29.1662 39.2554 28.9363 39.3554 28.7233C39.4501 28.5438 39.5689 28.3782 39.7084 28.231C39.9689 27.9472 40.2873 27.7444 40.4783 27.5243C40.3857 27.4143 39.8358 27.7039 40.3336 26.6381C40.5767 26.1863 40.6056 26.4759 40.7156 26.3949C40.6456 26.2636 40.6173 26.114 40.6346 25.9662C40.6387 25.661 40.6895 25.3583 40.7851 25.0684C40.9935 24.9816 40.8719 25.6477 41.0224 25.7461C41.1382 25.2466 41.3171 24.7639 41.5549 24.3097C41.6012 23.7768 41.5549 23.7826 41.4565 23.8347C41.3581 23.8869 41.2771 23.9795 41.2539 23.6494C41.3055 23.4114 41.4017 23.1853 41.5376 22.9833C41.5533 22.9659 41.5725 22.952 41.594 22.9425C41.6154 22.9329 41.6386 22.928 41.662 22.928C41.6855 22.928 41.7087 22.9329 41.7301 22.9425C41.7515 22.952 41.7707 22.9659 41.7865 22.9833C41.9486 23.0991 42.1164 23.3598 42.3653 23.0875C42.3653 23.2439 42.3653 23.4119 42.3653 23.5857C42.3653 23.7594 42.3653 23.9274 42.3248 24.0954C42.2843 24.2633 42.3248 24.4487 42.2669 24.6167L42.1801 25.1148C42.128 25.4449 42.0527 25.7519 41.9949 26.0184C41.9949 26.1516 41.9428 26.279 41.9196 26.3949C41.8965 26.5107 41.8733 26.6034 41.8559 26.6903L41.9543 26.3949L42.0354 26.0937L42.1974 25.5144L42.319 24.8715L42.3827 24.5703C42.3827 24.4661 42.4232 24.3676 42.4406 24.2633C42.5216 24.3618 42.701 23.9737 42.8457 23.7189C42.921 23.5915 42.9731 23.4988 43.0194 23.5219C43.0657 23.5451 43.0831 23.6841 43.0541 24.0201C43.4253 22.7158 43.5894 21.3613 43.5404 20.0061C43.4971 18.685 43.3029 17.3733 42.9615 16.0964C42.9615 16.2702 42.9615 16.4671 42.9615 16.6119C42.9615 16.7567 42.9152 16.8552 42.8515 16.832C42.5274 15.6736 42.7936 15.7315 42.8515 15.4477C42.5042 14.5846 42.1801 14.7758 41.7807 14.324C41.6981 13.6781 41.5527 13.0418 41.3466 12.4242C41.2829 12.1809 41.2076 11.955 41.1324 11.6828C41.0977 11.5496 41.0629 11.4048 41.0282 11.2368C40.9935 11.0688 40.9472 10.9008 40.9009 10.6981L40.6346 10.9472C40.5531 10.5435 40.3513 10.1739 40.0557 9.88721L39.8821 9.69607L39.6969 9.47597C39.5513 9.27721 39.4272 9.06365 39.3264 8.83883C39.3264 8.79249 39.4364 8.83883 39.5522 8.95467C39.6679 9.07052 39.8184 9.20953 39.9573 9.34275C39.8222 9.18269 39.7057 9.00781 39.61 8.82145C39.5486 8.69804 39.4964 8.57026 39.4538 8.43917C39.343 8.10575 39.1427 7.8092 38.8749 7.58193L39.2859 7.79624C39.4248 7.86575 39.558 7.94684 39.6969 8.02214C39.448 7.66881 39.0775 7.28653 38.8633 6.99113C38.6492 6.69573 38.5334 6.51618 38.8113 6.5741C38.6492 6.46405 38.4813 6.33662 38.3077 6.19761L37.7636 5.75161C37.5841 5.58943 37.3873 5.42725 37.1847 5.25928C36.9821 5.0913 36.7853 4.91754 36.5712 4.74957C36.357 4.58159 36.1544 4.40783 35.9344 4.25144C35.7145 4.09505 35.5003 3.93287 35.2803 3.78228L34.6205 3.36524C34.4063 3.23782 34.1806 3.13356 33.9722 3.0293L34.2384 2.83816C34.095 2.80677 33.9553 2.76017 33.8217 2.69914C33.6654 2.62964 33.4975 2.56013 33.3239 2.47325C33.1502 2.38637 32.9708 2.28211 32.7798 2.18944L32.2009 1.89983C32.0099 1.80136 31.8073 1.72027 31.6221 1.63918C31.4336 1.55628 31.2403 1.48472 31.0433 1.42487C30.7542 1.32016 30.4474 1.27294 30.1403 1.28586L30.1634 1.12368C29.8393 1.08893 29.5209 1.04838 29.1968 1.02521C28.8726 1.00204 28.56 0.984666 28.2417 0.973082C27.4255 0.75298 27.8018 0.393867 27.7092 0.480749C27.4776 0.42862 27.2461 0.405451 27.0261 0.37649C26.8062 0.347529 26.5804 0.306984 26.3663 0.289608C25.9495 0.254855 25.5327 0.196933 25.1739 0.173765L24.6297 0.127427C24.4503 0.127427 24.2767 0.127427 24.1088 0.0868823C23.7962 0.0637137 23.4489 0 23.1479 0C23.0078 0.136713 22.8307 0.229342 22.6385 0.266439C22.3896 0.341737 22.0597 0.42862 21.724 0.498125L21.1451 0.613968C20.9541 0.660306 20.7573 0.695059 20.5663 0.735604L19.9875 0.874616C19.7907 0.915161 19.5939 0.961498 19.4086 1.01363L18.7372 1.15843L18.0599 1.3322C17.8328 1.38831 17.6087 1.45597 17.3885 1.53492C17.1627 1.61022 16.937 1.66814 16.717 1.76082L16.0572 2.01567L15.4089 2.31686C15.1889 2.40954 14.9805 2.51959 14.7664 2.62964C14.5522 2.73969 14.3438 2.84395 14.1412 2.97138L13.5219 3.33049L12.943 3.72436C12.7462 3.85178 12.5552 4.00238 12.3642 4.14139L12.0806 4.3557C11.9822 4.42521 11.8953 4.5063 11.8027 4.5816C11.0607 5.17559 10.3712 5.83254 9.74206 6.54514C9.59156 6.7189 9.42949 6.89267 9.28478 7.07801L8.84486 7.65723C8.57281 8.03951 8.26602 8.41021 8.04607 8.81566C7.82611 9.22111 7.56563 9.60919 7.33989 10.0088C7.11414 10.4085 6.91733 10.8197 6.76105 11.2368C6.60476 11.6538 6.41953 12.0709 6.26325 12.4821C6.188 12.6964 6.12433 12.9049 6.05487 13.1192L5.95647 13.432L5.86964 13.7506C5.63604 14.5596 5.46002 15.3841 5.3429 16.218C5.29875 16.4842 5.27553 16.7534 5.27344 17.0231C5.27344 17.3128 5.31396 17.6024 5.3429 17.9383C5.37184 18.2743 5.4413 18.5639 5.4934 18.8824C5.54549 19.201 5.61495 19.508 5.66126 19.8092C5.6902 19.4443 5.70178 19.1605 5.70178 18.9172C5.70178 18.6739 5.70178 18.4712 5.70178 18.2685V17.9557C5.70178 17.8514 5.70178 17.7414 5.70178 17.6197C5.71016 17.3243 5.74112 17.03 5.79439 16.7393C5.85197 16.5051 5.93952 16.2793 6.05487 16.0674C6.14751 15.8913 6.25396 15.7228 6.37323 15.5635C6.48321 15.4129 6.61055 15.2681 6.73211 15.1117C6.86844 14.9482 6.99412 14.776 7.10835 14.5962C6.95206 14.7063 6.80736 14.8279 6.65107 14.9438C6.66447 14.6802 6.71115 14.4194 6.78999 14.1676C6.83368 14.0398 6.88789 13.9158 6.95206 13.7969C7.12138 13.5158 7.20767 13.1925 7.20096 12.8644L7.69298 13.1192C7.67971 12.8121 7.7716 12.5097 7.95345 12.262C8.11885 12.0051 8.31306 11.7681 8.53229 11.5554C8.48019 11.3932 8.43389 11.2252 8.38179 11.0514C8.46283 10.9646 8.53229 10.8835 8.60754 10.8082L8.81592 10.5939C8.95484 10.4606 9.0764 10.3448 9.19216 10.2463C9.38972 10.07 9.64008 9.96407 9.90413 9.94513L9.56841 9.81191C9.74567 9.67802 9.90346 9.52012 10.0373 9.34275L10.3672 8.94888C10.483 8.81566 10.6103 8.68823 10.7261 8.5666C10.8895 8.36903 11.0852 8.20061 11.3049 8.06847C11.4496 8.00476 11.5133 8.06847 11.4496 8.36387C11.5075 8.24803 11.5422 8.11481 11.6117 7.96421C11.7142 7.77747 11.8518 7.61227 12.0169 7.47767L12.3179 7.6804C12.4453 7.52678 12.5805 7.37984 12.7231 7.24019C12.8478 7.10222 12.9833 6.97439 13.1283 6.85791C13.4003 6.63781 13.6318 6.48721 13.7881 6.50459C13.6888 6.60069 13.6098 6.71591 13.5561 6.84332C13.5024 6.97073 13.475 7.1077 13.4756 7.24599C13.6376 7.12435 13.7766 7.00851 13.8981 6.90425C14.0197 6.79999 14.1296 6.7189 14.2223 6.63781C14.3633 6.51028 14.4931 6.37075 14.6101 6.22078C14.6736 6.14013 14.7176 6.0459 14.7387 5.94542C14.7598 5.84494 14.7574 5.74095 14.7316 5.64156C14.7029 5.55315 14.6943 5.45946 14.7063 5.36728C14.7183 5.2751 14.7507 5.18676 14.8011 5.10868C15.0943 4.73364 15.479 4.44042 15.9182 4.25723L15.9877 4.47734C16.1787 4.2862 16.3813 4.11822 16.5665 3.93287C16.8502 3.93287 17.1454 3.93287 17.4232 3.89233C17.4705 3.81628 17.5269 3.74626 17.5911 3.68381C17.6619 3.62037 17.7374 3.56228 17.8168 3.51005C17.9985 3.38771 18.1925 3.28482 18.3957 3.20306C18.6484 3.11986 18.9054 3.05026 19.1655 2.99454C19.4376 2.93662 19.7154 2.8787 20.0048 2.83236C21.1625 2.64702 22.4128 2.64122 23.3389 2.43271C23.5328 2.41952 23.7276 2.43316 23.9178 2.47325C24.1503 2.51401 24.3803 2.56816 24.6066 2.63543C25.1766 2.79736 25.7567 2.9212 26.3431 3.00613V2.64702C26.8698 2.90187 28.1201 3.30732 29.2373 3.93287C30.3544 4.55843 31.35 5.36354 31.5526 5.96592C31.686 6.00233 31.8213 6.03134 31.9578 6.0528C32.0041 6.0528 31.9578 6.0528 31.9173 5.97171C31.8768 5.89062 31.5816 5.73423 31.6568 5.61839L31.9868 5.74003C32.0852 5.78636 32.1778 5.82691 32.2588 5.87325C32.4122 5.94727 32.5611 6.03044 32.7045 6.12231C32.9064 6.26684 33.0875 6.43834 33.2428 6.63202C33.3587 6.79446 33.4632 6.96478 33.5554 7.14173L33.7117 7.40238C33.7696 7.49505 33.8333 7.59352 33.9085 7.69198C34.4063 8.00476 34.2616 7.83679 34.0706 7.61089C33.8796 7.385 33.6364 7.10698 33.9606 7.21123C34.0875 7.36343 34.2249 7.50665 34.3716 7.63985C34.4752 7.74524 34.5854 7.84391 34.7015 7.93525C34.8876 8.07103 35.0808 8.19671 35.2803 8.31174C35.373 8.36387 35.4714 8.42759 35.5756 8.49709L35.7376 8.61294L35.8997 8.76353C36.0318 8.89227 36.1574 9.02759 36.2759 9.16898C36.4284 9.36537 36.5695 9.57037 36.6985 9.78295C36.6985 10.0784 36.2296 9.40067 35.9807 9.30799C36.7886 10.0013 37.4566 10.8428 37.9488 11.787C38.5335 12.8972 39.0104 14.061 39.3727 15.2623C39.4422 15.5925 39.4827 15.9516 39.5464 16.3223C39.5464 16.5076 39.5927 16.6988 39.6158 16.9015L39.6506 17.1911V17.4923C39.7174 18.325 39.7174 19.1618 39.6506 19.9945C39.6506 20.203 39.6506 20.4173 39.5985 20.6317L39.5116 21.2688C39.4364 21.6916 39.3727 22.1145 39.2627 22.5199C39.1528 22.9254 39.037 23.3308 38.9154 23.7131C38.8402 23.9042 38.7707 24.0896 38.7013 24.2923C38.6318 24.495 38.545 24.6514 38.4697 24.831L38.5739 24.9236C38.5276 24.9932 38.4871 25.0627 38.4466 25.1322C38.4061 25.2017 38.3598 25.2712 38.3192 25.3465C38.2787 25.4218 38.1687 25.6303 38.0993 25.7809C38.0298 25.9315 37.9488 26.0821 37.8851 26.2327C37.8214 26.3833 37.752 26.5455 37.6767 26.696L37.451 27.1652C37.3757 27.3216 37.2889 27.478 37.2021 27.6344L37.069 27.8661L36.9185 28.092C36.8143 28.2426 36.7101 28.3931 36.5943 28.538L37.1674 27.9935Z" fill="#070102"/>
<path d="M21.1094 38.8074L21.3699 39.1376C21.6593 39.1376 21.9487 39.1376 22.2381 39.1376H22.6664L23.1006 39.097C22.9525 39.0236 22.7973 38.9654 22.6375 38.9233C22.4956 38.9031 22.3525 38.8915 22.2092 38.8885H21.7287C21.521 38.8722 21.3143 38.8452 21.1094 38.8074Z" fill="#070102"/>
<path d="M21.5734 37.9386C21.2898 37.9386 20.9946 37.9386 20.7109 37.9386C20.9367 37.9791 21.1682 37.9907 21.3998 38.0197L21.7413 38.0544H22.0886C21.9149 38.0544 21.7413 38.0023 21.5734 37.9386Z" fill="#070102"/>
<path d="M39.5061 29.6732L39.3498 29.8296C38.8456 30.7698 38.2648 31.6667 37.6133 32.5114C38.3279 31.624 38.9614 30.6741 39.5061 29.6732Z" fill="#070102"/>
</svg>
