<svg width="93" height="35" viewBox="0 0 93 35" fill="none" xmlns="http://www.w3.org/2000/svg">
<path d="M27.2833 7.2963C26.4812 6.52133 21.5369 7.33505 16.519 12.6319C13.3029 12.8644 10.1953 15.3947 9.71484 18.3977C10.0597 18.2504 10.3929 18.0877 10.7378 17.9714C10.9703 17.8901 11.2067 17.8087 11.443 17.7467C11.8682 17.6364 12.315 17.6403 12.7382 17.758C13.1613 17.8757 13.546 18.1031 13.8532 18.417L15.0156 19.5795L16.1781 20.7419C16.492 21.0491 16.7193 21.4337 16.8371 21.8569C16.9548 22.2801 16.9587 22.7269 16.8484 23.1521C16.7864 23.3884 16.705 23.6248 16.6237 23.8573C16.5074 24.2022 16.3447 24.5354 16.1974 24.8802C19.1849 24.3843 21.6997 21.2767 21.9477 18.0606C27.2484 13.0233 28.0583 8.09839 27.2833 7.2963ZM23.1605 14.3601C22.8734 14.6476 22.5075 14.8435 22.109 14.923C21.7106 15.0024 21.2975 14.9619 20.9221 14.8066C20.5466 14.6512 20.2257 14.388 19.9999 14.0502C19.7742 13.7124 19.6536 13.3153 19.6536 12.909C19.6536 12.5027 19.7742 12.1055 19.9999 11.7677C20.2257 11.4299 20.5466 11.1667 20.9221 11.0114C21.2975 10.856 21.7106 10.8155 22.109 10.895C22.5075 10.9745 22.8734 11.1704 23.1605 11.4579C23.3513 11.6483 23.5028 11.8744 23.6061 12.1234C23.7094 12.3725 23.7626 12.6394 23.7626 12.909C23.7626 13.1786 23.7094 13.4455 23.6061 13.6945C23.5028 13.9435 23.3513 14.1697 23.1605 14.3601Z" fill="white"/>
<path d="M8.58334 26.0505C8.75383 26.1047 12.3535 26.6278 14.0081 24.0317C14.5438 23.2964 15.0144 22.5159 15.4147 21.699C15.4147 21.699 15.279 21.5557 15.1163 21.3852C14.4072 22.1873 13.6245 23.1095 12.4039 23.6248C11.8588 23.801 11.2939 23.909 10.7222 23.9464C10.7594 23.3751 10.8661 22.8103 11.04 22.2648C11.5515 21.0326 12.4814 20.2576 13.2835 19.5524C13.113 19.3858 12.9851 19.2579 12.9735 19.254C12.1478 19.6501 11.3593 20.1195 10.6176 20.6567C8.01374 22.2803 8.52522 25.8839 8.58334 26.0505Z" fill="white"/>
<path d="M5.92124 27.5113L0.240751 33.2072C0.164423 33.2836 0.103877 33.3742 0.0625691 33.4739C0.021261 33.5736 0 33.6805 0 33.7885C0 33.8964 0.021261 34.0033 0.0625691 34.103C0.103877 34.2028 0.164423 34.2934 0.240751 34.3697C0.317078 34.446 0.407692 34.5066 0.507418 34.5479C0.607145 34.5892 0.714031 34.6104 0.821974 34.6104C0.929917 34.6104 1.0368 34.5892 1.13653 34.5479C1.23626 34.5066 1.32687 34.446 1.4032 34.3697L7.08756 28.6931C7.17562 28.6196 7.24741 28.5287 7.29836 28.4259C7.34931 28.3232 7.37829 28.211 7.38347 28.0965C7.38864 27.9819 7.3699 27.8676 7.32842 27.7607C7.28695 27.6538 7.22365 27.5567 7.14257 27.4756C7.0615 27.3945 6.96442 27.3313 6.85752 27.2898C6.75063 27.2483 6.63626 27.2296 6.52172 27.2347C6.40718 27.2399 6.29497 27.2689 6.19225 27.3198C6.08953 27.3708 5.99855 27.4426 5.92512 27.5306L5.92124 27.5113Z" fill="white"/>
<path d="M18.1617 0C15.4208 0.000574586 12.723 0.682061 10.3107 1.98323C7.8983 3.2844 5.84698 5.16449 4.341 7.45459C2.83501 9.74468 1.92155 12.373 1.68267 15.1035C1.44379 17.834 1.88698 20.581 2.97243 23.0978L0.647537 25.4227C0.515599 25.5809 0.447598 25.7828 0.456897 25.9886C0.466195 26.1944 0.552122 26.3892 0.697791 26.5349C0.84346 26.6806 1.03834 26.7665 1.24414 26.7758C1.44994 26.7851 1.65177 26.7171 1.80998 26.5852L7.5021 20.8969C7.59016 20.8235 7.66195 20.7325 7.7129 20.6298C7.76384 20.5271 7.79283 20.4149 7.798 20.3003C7.80318 20.1858 7.78443 20.0714 7.74296 19.9645C7.70148 19.8576 7.63819 19.7605 7.55711 19.6795C7.47603 19.5984 7.37895 19.5351 7.27206 19.4936C7.16516 19.4521 7.0508 19.4334 6.93625 19.4386C6.82171 19.4437 6.7095 19.4727 6.60678 19.5237C6.50406 19.5746 6.41309 19.6464 6.33965 19.7345L4.23562 21.8385C3.02708 18.651 2.94969 15.1452 4.01641 11.9074C5.08313 8.66969 7.22925 5.89643 10.0958 4.05151C12.9623 2.2066 16.3755 1.40193 19.7642 1.7721C23.153 2.14228 26.3119 3.66485 28.7125 6.08512C31.1132 8.5054 32.61 11.6766 32.9525 15.0683C33.2951 18.4599 32.4626 21.8664 30.5944 24.7178C28.7262 27.5692 25.9355 29.6927 22.6892 30.733C19.4429 31.7733 15.9378 31.6673 12.7602 30.4329L14.8914 28.2862C15.0455 28.1321 15.1321 27.923 15.1321 27.705C15.1321 27.487 15.0455 27.2779 14.8914 27.1238C14.7372 26.9696 14.5282 26.883 14.3102 26.883C14.0922 26.883 13.8831 26.9696 13.7289 27.1238L8.04845 32.8043C7.97212 32.8806 7.91158 32.9712 7.87027 33.0709C7.82896 33.1706 7.8077 33.2775 7.8077 33.3855C7.8077 33.4934 7.82896 33.6003 7.87027 33.7C7.91158 33.7998 7.97212 33.8904 8.04845 33.9667C8.12478 34.043 8.21539 34.1036 8.31512 34.1449C8.41484 34.1862 8.52173 34.2075 8.62967 34.2075C8.73762 34.2075 8.8445 34.1862 8.94423 34.1449C9.04396 34.1036 9.13457 34.043 9.2109 33.9667L11.4932 31.6844C13.5916 32.6151 15.8623 33.0944 18.1579 33.091C22.546 33.091 26.7544 31.3478 29.8573 28.2449C32.9602 25.142 34.7034 20.9336 34.7034 16.5455C34.7034 12.1574 32.9602 7.94895 29.8573 4.84606C26.7544 1.74318 22.546 6.53884e-08 18.1579 0L18.1617 0Z" fill="white"/>
<path d="M47.9055 14.6895H42.4808V5.87427H39.2646V17.2391H47.9055V14.6895Z" fill="white"/>
<path d="M61.8741 11.5547C61.8741 8.14489 59.1966 5.64563 55.5582 5.64563C51.9197 5.64563 49.2422 8.14489 49.2422 11.5547C49.2422 14.9646 51.9197 17.4677 55.5582 17.4677C59.1966 17.4677 61.8741 14.9646 61.8741 11.5547ZM55.5582 14.8018C53.8377 14.8018 52.4893 13.5193 52.4893 11.5547C52.4893 9.5902 53.8377 8.30763 55.5582 8.30763C57.2786 8.30763 58.627 9.5902 58.627 11.5547C58.627 13.5193 57.2786 14.8018 55.5582 14.8018Z" fill="white"/>
<path d="M74.9827 16.0224V11.3145H72.1425V14.4144C71.5993 14.6695 71.0066 14.8018 70.4066 14.8018C68.4885 14.8018 67.1905 13.4728 67.1905 11.5547C67.1905 9.6367 68.4885 8.30763 70.4376 8.30763C70.9626 8.30111 71.4825 8.41142 71.9597 8.63056C72.4368 8.8497 72.8593 9.1722 73.1964 9.5747L75.2423 7.72254C74.1225 6.37797 72.4021 5.64563 70.2748 5.64563C66.5899 5.64563 63.9434 8.09839 63.9434 11.5547C63.9434 15.0111 66.5899 17.4677 70.2089 17.4677C71.9092 17.476 73.5726 16.9724 74.9827 16.0224Z" fill="white"/>
<path d="M45.8276 22.9583C45.8276 21.2922 44.576 20.246 42.5882 20.246H39.2559V27.5539H41.3173V25.6165H42.441L43.7623 27.5539H45.9709L44.3978 25.26C44.8384 25.0626 45.2099 24.738 45.4647 24.3279C45.7194 23.9177 45.8458 23.4408 45.8276 22.9583ZM42.4642 24.0239H41.3018V21.885H42.4642C43.3167 21.885 43.7429 22.2725 43.7429 22.9583C43.7429 23.6442 43.3167 24.0239 42.4642 24.0239Z" fill="white"/>
<path d="M51.4154 20.1142C49.0905 20.1142 47.3623 21.7184 47.3623 23.9076C47.3623 26.0969 49.0827 27.6972 51.4154 27.6972C53.748 27.6972 55.4684 26.093 55.4684 23.9076C55.4684 21.7222 53.748 20.1142 51.4154 20.1142ZM51.4154 25.9884C51.1458 25.9935 50.8782 25.9422 50.6296 25.8379C50.381 25.7337 50.1569 25.5786 49.9716 25.3828C49.7863 25.1869 49.644 24.9546 49.5536 24.7006C49.4633 24.4466 49.427 24.1765 49.447 23.9076C49.4301 23.6388 49.4685 23.3693 49.5598 23.1158C49.651 22.8623 49.7933 22.6302 49.9777 22.4339C50.1622 22.2375 50.3849 22.081 50.6321 21.974C50.8794 21.867 51.146 21.8118 51.4154 21.8118C51.6848 21.8118 51.9513 21.867 52.1986 21.974C52.4459 22.081 52.6686 22.2375 52.853 22.4339C53.0374 22.6302 53.1797 22.8623 53.271 23.1158C53.3623 23.3693 53.4007 23.6388 53.3838 23.9076C53.4038 24.1765 53.3674 24.4466 53.2771 24.7006C53.1868 24.9546 53.0444 25.1869 52.8591 25.3828C52.6739 25.5786 52.4498 25.7337 52.2012 25.8379C51.9525 25.9422 51.6849 25.9935 51.4154 25.9884Z" fill="white"/>
<path d="M61.0671 21.823C61.3981 21.8247 61.7242 21.9028 62.0199 22.0514C62.3157 22.1999 62.5731 22.4149 62.772 22.6794L64.0856 21.4898C63.7033 21.0357 63.2219 20.6756 62.6784 20.4371C62.1349 20.1986 61.5438 20.0881 60.9509 20.1142C58.626 20.1142 56.9404 21.6874 56.9404 23.9077C56.9404 26.128 58.6376 27.6973 60.9509 27.6973C61.5441 27.7252 62.1357 27.6155 62.6795 27.3769C63.2233 27.1383 63.7045 26.7771 64.0856 26.3217L62.772 25.136C62.5711 25.4009 62.3116 25.6157 62.0138 25.7636C61.716 25.9115 61.388 25.9885 61.0555 25.9885C60.7808 26.0024 60.5063 25.9578 60.2503 25.8575C59.9942 25.7571 59.7624 25.6035 59.5704 25.4066C59.3783 25.2098 59.2303 24.9743 59.1363 24.7159C59.0423 24.4574 59.0044 24.1819 59.0251 23.9077C59.0036 23.6321 59.0414 23.3551 59.1358 23.0953C59.2303 22.8356 59.3792 22.599 59.5726 22.4015C59.766 22.2041 59.9995 22.0503 60.2572 21.9505C60.515 21.8507 60.7912 21.8073 61.0671 21.823Z" fill="white"/>
<path d="M73.1648 20.2615H70.898L68.0733 23.2916V20.2615H66.0312V27.5539H68.0733V25.7289L68.8444 24.9074L70.929 27.5539H73.3237L70.1889 23.4892L73.1648 20.2615Z" fill="white"/>
<path d="M76.9552 24.6245H80.1945V23.0823H76.9552V21.854H80.6324V20.2615H74.917V27.5539H80.768V25.9575H76.9552V24.6245Z" fill="white"/>
<path d="M82.2979 21.8966H84.5336V27.5539H86.5989V21.8966H88.8269V20.2615H82.2979V21.8966Z" fill="white"/>
<path d="M90.8301 11.299C90.6558 8.1991 87.9705 5.73084 84.6808 5.73084C83.7035 5.73007 82.7394 5.95553 81.8638 6.38956C80.0349 5.88195 77.8611 5.61459 77.1636 6.93203C76.6832 7.84649 77.1636 9.02444 78.6012 10.4387L78.6361 10.4736C78.5568 10.8469 78.5165 11.2274 78.516 11.6089C78.516 14.8522 81.2826 17.4871 84.6808 17.4871C86.1976 17.4914 87.6653 16.9495 88.8152 15.9604L89.1601 16.0379C89.6815 16.1474 90.2122 16.2071 90.7449 16.2161C91.8182 16.2161 92.5312 15.8945 92.8683 15.2552C93.3178 14.4104 92.6087 13.0698 90.8301 11.299ZM79.9806 11.6399C81.0967 12.4945 82.2842 13.2516 83.53 13.9028C84.6524 14.5053 85.818 15.0234 87.0173 15.4528C86.3033 15.839 85.5043 16.0415 84.6924 16.0417C82.0963 16.0301 79.9961 14.0617 79.9806 11.6244V11.6399ZM84.2158 12.6086C82.8227 11.8863 81.5108 11.0173 80.3022 10.0164C80.675 9.17031 81.2887 8.45272 82.0666 7.95314C82.8446 7.45356 83.7525 7.19411 84.6769 7.20714C87.2692 7.20714 89.3771 9.18718 89.3771 11.6167C89.3698 12.611 89.0132 13.5711 88.3696 14.3291C86.9313 13.895 85.5398 13.3187 84.2158 12.6086ZM78.4578 7.62563C78.4966 7.552 78.9771 7.33114 80.2519 7.5365C79.8312 7.95012 79.4747 8.42419 79.194 8.94307C78.4695 8.1371 78.4268 7.68375 78.4578 7.62563ZM89.9234 14.6894C90.224 14.2271 90.4551 13.7232 90.6093 13.1937C91.2409 13.9106 91.5276 14.4027 91.5276 14.6119C91.4036 14.7243 90.9464 14.8444 89.9234 14.6894Z" fill="white"/>
</svg>
