<svg width="143" height="36" viewBox="0 0 143 36" fill="none" xmlns="http://www.w3.org/2000/svg">
<path fill-rule="evenodd" clip-rule="evenodd" d="M83.2066 10.1435C89.6645 10.1435 94.5388 14.8671 94.5388 21.0986C94.5388 27.3302 89.6645 32.0544 83.2066 32.0544C76.7487 32.0544 71.8744 27.3302 71.8744 21.0986C71.8744 14.8671 76.7487 10.1435 83.2066 10.1435ZM132.607 10.2439C139.592 10.2439 142.784 15.6713 142.784 21.6015C142.784 21.9909 142.784 22.3679 142.746 22.7573C142.723 22.9927 142.61 23.1399 142.39 23.1573L142.344 23.1591H128.135C128.713 25.7348 130.396 27.28 133.261 27.28C134.994 27.28 136.414 26.8404 138.11 25.3956C138.275 25.255 138.45 25.2348 138.625 25.3654L138.663 25.3956L141.427 27.8833C141.615 28.0464 141.653 28.2603 141.478 28.4612C139.404 30.8354 136.703 32.0544 133.185 32.0544C126.853 32.0544 122.255 27.6068 122.255 21.1241C122.255 15.169 126.501 10.2439 132.607 10.2439ZM109.44 5.26855C109.691 5.26855 109.842 5.41923 109.842 5.67035V10.6457H114.365C114.616 10.6457 114.766 10.7964 114.766 11.0481V15.2695C114.766 15.5206 114.616 15.6713 114.365 15.6713H109.842V24.7923C109.842 26.1744 110.458 26.828 111.676 26.828C112.581 26.828 113.322 26.7523 114.214 26.3003C114.49 26.162 114.691 26.2501 114.691 26.5266V30.4714C114.691 30.6723 114.616 30.8484 114.415 30.9737C113.322 31.6527 111.877 32.0544 109.992 32.0544C106.738 32.0544 104.414 30.8856 103.974 27.1672C103.927 26.7666 103.914 26.2337 103.912 25.5371L103.912 15.6713H101.801C101.55 15.6713 101.399 15.5206 101.399 15.2695V11.0481C101.399 10.7964 101.55 10.6457 101.801 10.6457H103.912V5.67035C103.912 5.41923 104.063 5.26855 104.314 5.26855H109.44ZM57.1499 10.1435C60.931 10.1435 63.3685 12.2665 64.0474 15.8219C64.1727 16.4755 64.2353 17.2543 64.2353 18.247V31.1498C64.2353 31.4009 64.0846 31.5522 63.8335 31.5522H58.7075C58.4564 31.5522 58.3057 31.4009 58.3057 31.1498V19.7922C58.3057 17.0032 56.9732 15.5206 54.7124 15.5206C52.4505 15.5206 51.0181 16.9777 51.0181 19.7922V31.1498C51.0181 31.4009 50.8681 31.5522 50.6163 31.5522H45.4903C45.2392 31.5522 45.0879 31.4009 45.0879 31.1498V11.0481C45.0879 10.7964 45.2392 10.6457 45.4903 10.6457H50.6163C50.8681 10.6457 51.0181 10.7964 51.0181 11.0481V13.4347C52.9905 10.7964 55.2897 10.1435 57.1499 10.1435ZM83.2066 15.2689C79.8397 15.2689 77.729 17.9828 77.729 21.0986C77.729 24.2144 79.8397 26.9284 83.2066 26.9284C86.5741 26.9284 88.6842 24.2144 88.6842 21.0986C88.6842 17.9828 86.5741 15.2689 83.2066 15.2689ZM132.607 14.9929C130.245 14.9929 128.71 16.6003 128.04 19.3363L128.009 19.4654H137.017C136.602 16.8525 135.171 14.9929 132.607 14.9929Z" fill="white"/>
<path fill-rule="evenodd" clip-rule="evenodd" d="M13.9811 16.3252H9.83478C9.34493 16.3252 9.18186 16.2998 8.93011 16.2247C8.25239 16.0238 7.7241 15.3455 7.7241 14.5413C7.7241 13.7371 8.25239 13.0587 8.93011 12.8578C9.18186 12.7822 9.34493 12.7574 9.83478 12.7574H12.5234V10.0688C12.5234 9.57834 12.5488 9.41526 12.6244 9.16414C12.8253 8.47277 13.5037 7.95751 14.3073 7.95751C15.1115 7.95751 15.7904 8.48518 15.9913 9.16414C16.0664 9.41526 16.0918 9.57834 16.0918 10.0688V14.2145C16.0918 14.4656 16.0918 14.7174 16.0416 14.9431C15.9033 15.5718 15.3378 16.1367 14.7097 16.275C14.484 16.3252 14.2322 16.3252 13.9811 16.3252ZM27.2987 31.5526H5.06096V11.9656C5.06096 11.7144 5.14901 11.5011 5.32448 11.325L11.0916 5.55788C11.2671 5.38241 11.481 5.29436 11.7322 5.29436H27.2987V31.5526ZM1.69404 8.6743C1.10312 9.26459 0.714344 10.0062 0.638077 10.8352C0.625676 10.9735 0.613281 11.1744 0.613281 11.3753V33.525C0.613281 33.8139 0.625676 33.9646 0.638077 34.0781C0.739146 35.02 1.59297 35.8744 2.53546 35.9748C2.64893 35.9872 2.7996 36.0003 3.08855 36.0003H29.2711C29.5601 36.0003 29.7107 35.9872 29.8242 35.9748C30.7661 35.8744 31.6205 35.02 31.721 34.0781C31.734 33.9646 31.7458 33.8139 31.7458 33.525V3.32195C31.7458 3.033 31.734 2.88233 31.721 2.76886C31.6205 1.82699 30.7661 0.972551 29.8242 0.872102C29.7107 0.8597 29.5601 0.84668 29.2711 0.84668H11.1419C10.941 0.84668 10.7394 0.8597 10.6018 0.872102C9.77216 0.947129 9.03119 1.33653 8.44027 1.92744L1.69404 8.6743Z" fill="white"/>
</svg>
