<svg width="50" height="50" viewBox="0 0 50 50" fill="none" xmlns="http://www.w3.org/2000/svg">
<path d="M50 25C50 38.8125 38.8125 50 25 50C11.1875 50 0 38.8125 0 25C0 11.1875 11.1875 0 25 0C38.8125 0 50 11.1875 50 25ZM20.425 38.1875C31.5125 38.1875 37.575 29 37.575 21.0375C37.575 20.775 37.575 20.5125 37.5625 20.2625C38.7375 19.4125 39.7625 18.35 40.575 17.1375C39.5 17.6125 38.3375 17.9375 37.1125 18.0875C38.3625 17.3375 39.3125 16.1625 39.7625 14.75C38.6 15.4375 37.3125 15.9375 35.9375 16.2125C34.8375 15.0375 33.275 14.3125 31.5375 14.3125C28.2125 14.3125 25.5125 17.0125 25.5125 20.3375C25.5125 20.8125 25.5625 21.275 25.675 21.7125C20.6625 21.4625 16.225 19.0625 13.25 15.4125C12.7375 16.3 12.4375 17.3375 12.4375 18.4375C12.4375 20.525 13.5 22.375 15.125 23.45C14.1375 23.425 13.2125 23.15 12.4 22.7C12.4 22.725 12.4 22.75 12.4 22.775C12.4 25.7 14.475 28.125 17.2375 28.6875C16.7375 28.825 16.2 28.9 15.65 28.9C15.2625 28.9 14.8875 28.8625 14.5125 28.7875C15.275 31.1875 17.5 32.925 20.1375 32.975C18.075 34.5875 15.475 35.55 12.65 35.55C12.1625 35.55 11.6875 35.525 11.2125 35.4625C13.85 37.1875 17.025 38.1875 20.425 38.1875Z" fill="white"/>
</svg>
